<svg width="67" height="67" viewBox="0 0 67 67" fill="none" xmlns="http://www.w3.org/2000/svg">
<ellipse cx="33.7405" cy="5.56868" rx="5.50905" ry="5.56868" fill="#F5F0F7"/>
<path d="M17.8886 22.7515C16.6672 13.9709 26.4117 7.88347 33.767 12.8322L45.7041 20.8637C47.3396 21.964 47.9812 24.0592 47.2424 25.8867L44.8818 31.7255C44.8267 31.8619 44.6538 31.9035 44.5427 31.8071L31.1426 20.1865C27.0395 16.6282 20.7038 17.7327 18.0468 22.4695L17.8886 22.7515Z" fill="#F5F0F7"/>
<ellipse cx="60.8999" cy="33.0869" rx="5.50905" ry="5.56868" fill="#F5F0F7"/>
<path d="M43.9768 17.1086C52.6883 15.7149 58.9686 25.2531 54.246 32.705L46.3805 45.1161C45.2986 46.8231 43.1578 47.5227 41.2767 46.7838L35.5732 44.5435C35.4378 44.4903 35.3936 44.3206 35.4857 44.2081L46.8923 30.2833C50.29 26.1355 49.0901 19.9219 44.3925 17.3373L43.9768 17.1086Z" fill="#F5F0F7"/>
<ellipse cx="33.7403" cy="60.6053" rx="5.50905" ry="5.56868" fill="#F5F0F7"/>
<path d="M49.5715 43.2036C51.0953 51.9359 41.5672 58.3634 34.0456 53.6772L21.8382 46.0716C20.1657 45.0296 19.4521 42.9582 20.1274 41.1057L22.2849 35.1873C22.3352 35.0491 22.5066 35.0014 22.621 35.0938L36.4143 46.2348C40.6377 49.6461 46.9312 48.3188 49.423 43.4912L49.5715 43.2036Z" fill="#F5F0F7"/>
<ellipse cx="6.58107" cy="33.0872" rx="5.50905" ry="5.56868" fill="#F5F0F7"/>
<path d="M23.5413 49.3495C14.855 50.8983 8.41289 41.4733 13.0075 33.9382L20.6596 21.3888C21.7121 19.6627 23.8406 18.9251 25.734 19.6303L31.4749 21.7687C31.6112 21.8194 31.6583 21.9883 31.5681 22.1024L20.4014 36.2285C17.0751 40.4363 18.3808 46.6278 23.1219 49.1283L23.5413 49.3495Z" fill="#F5F0F7"/>
</svg>
