<svg width="1980" height="1980" viewBox="0 0 1980 1980" fill="none" xmlns="http://www.w3.org/2000/svg">
<ellipse cx="997.107" cy="164.567" rx="162.805" ry="164.567" fill="#04D361"/>
<path d="M528.648 672.356C492.552 412.869 780.524 232.973 997.89 379.22L1350.66 616.568C1398.99 649.086 1417.95 711.003 1396.12 765.009L1326.36 937.559C1324.73 941.589 1319.62 942.818 1316.33 939.971L920.334 596.555C799.077 491.399 611.844 524.04 533.322 664.023L528.648 672.356Z" fill="#04D361"/>
<ellipse cx="1799.73" cy="977.792" rx="162.805" ry="164.567" fill="#8257E5"/>
<path d="M1299.61 505.598C1557.06 464.411 1742.66 746.285 1603.09 966.505L1370.65 1333.28C1338.68 1383.73 1275.41 1404.4 1219.82 1382.57L1051.27 1316.36C1047.27 1314.79 1045.96 1309.77 1048.68 1306.45L1385.77 894.938C1486.18 772.363 1450.72 588.737 1311.9 512.357L1299.61 505.598Z" fill="#8257E5"/>
<ellipse cx="997.105" cy="1791.02" rx="162.805" ry="164.567" fill="#04D361"/>
<path d="M1464.95 1276.77C1509.99 1534.82 1228.41 1724.77 1006.13 1586.28L645.372 1361.52C595.946 1330.73 574.858 1269.51 594.814 1214.77L658.573 1039.86C660.062 1035.78 665.127 1034.37 668.507 1037.1L1076.13 1366.34C1200.94 1467.16 1386.93 1427.93 1460.57 1285.26L1464.95 1276.77Z" fill="#04D361"/>
<ellipse cx="194.485" cy="977.801" rx="162.805" ry="164.567" fill="#8257E5"/>
<path d="M695.7 1458.39C439.001 1504.16 248.622 1225.63 384.403 1002.95L610.541 632.087C641.645 581.077 704.546 559.279 760.499 580.12L930.158 643.314C934.185 644.814 935.578 649.804 932.911 653.177L602.908 1070.63C504.609 1194.98 543.197 1377.96 683.306 1451.85L695.7 1458.39Z" fill="#8257E5"/>
</svg>
