<svg width="43" height="43" viewBox="0 0 43 43" fill="none" xmlns="http://www.w3.org/2000/svg">
<g style="mix-blend-mode:overlay">
<path d="M15.5 17C19.6421 17 23 13.6421 23 9.5C23 5.35787 19.6421 2 15.5 2C11.3579 2 8 5.35787 8 9.5C8 13.6421 11.3579 17 15.5 17Z" stroke="white" stroke-width="3" stroke-linecap="round" stroke-linejoin="round"/>
<path d="M20 38H2V36.3737C2.02388 34.0871 2.62693 31.8437 3.75281 29.8534C4.87871 27.8631 6.4907 26.1905 8.43821 24.992C10.3857 23.7936 12.6053 23.1082 14.8894 23.0001C17.1736 22.892 19.448 23.3646 21.5 24.3737" stroke="white" stroke-width="3" stroke-linecap="round" stroke-linejoin="round"/>
<path d="M32 23V41" stroke="white" stroke-width="3" stroke-linecap="round" stroke-linejoin="round"/>
<path d="M23 32H41" stroke="white" stroke-width="3" stroke-linecap="round" stroke-linejoin="round"/>
</g>
</svg>
