<svg width="362" height="815" viewBox="0 0 362 815" fill="none" xmlns="http://www.w3.org/2000/svg">
<g filter="url(#filter0_f_156_774)">
<path d="M76.8633 192.488C80.3039 178.51 87.9678 165.932 98.8119 156.464L134.954 124.911C145.081 116.07 157.537 110.33 170.837 108.376L186.083 106.135C203.261 103.611 219.695 114.053 224.706 130.676L269.963 280.78C273.087 291.141 273.767 302.086 271.951 312.754L252.646 426.153C251.782 431.229 251.48 436.385 251.746 441.527L266.196 720.817C267.142 739.118 253.822 755.054 235.643 757.369L131.923 770.574C127.556 771.13 123.123 770.858 118.856 769.771L50.2833 752.307C33.0578 747.92 21.8506 731.325 24.2159 713.708L60.5462 443.113C61.3427 437.181 61.3755 431.171 60.6437 425.23L47.8936 321.714C46.7645 312.547 47.4595 303.247 49.9388 294.349L65.8149 237.374L76.8633 192.488Z" fill="#774FD1"/>
</g>
<path d="M70.6878 173.544C74.2335 159.139 82.1314 146.177 93.3066 136.42L130.552 103.903C140.988 94.7926 153.825 88.8772 167.531 86.8633L183.243 84.5546C200.945 81.9536 217.88 92.7142 223.045 109.845L269.683 264.532C272.903 275.21 273.604 286.488 271.732 297.483L251.838 414.343C250.948 419.574 250.637 424.888 250.911 430.187L265.801 718.006C266.777 736.865 253.049 753.288 234.316 755.673L127.429 769.282C122.928 769.855 118.36 769.574 113.963 768.454L43.2962 750.457C25.5448 745.936 13.9954 728.834 16.4329 710.679L53.8725 431.822C54.6933 425.708 54.7271 419.515 53.973 413.392L40.8335 306.715C39.6699 297.268 40.3862 287.685 42.9412 278.516L59.3021 219.8L70.6878 173.544Z" fill="#774FD1"/>
<path d="M49.2477 196.363L49.2479 196.363L49.2508 196.352L61.8909 144.999C65.8076 129.087 74.5317 114.769 86.876 103.991L128.225 67.8922C139.753 57.8282 153.933 51.294 169.073 49.0694L186.515 46.5064C205.971 43.6476 224.584 55.4743 230.261 74.3017L282.037 246.031C285.593 257.826 286.368 270.284 284.3 282.429L262.214 412.164C261.221 418.001 260.874 423.929 261.18 429.841L277.711 749.369C278.783 770.096 263.696 788.146 243.106 790.768L124.443 805.875C119.497 806.505 114.476 806.197 109.644 804.966L31.1915 784.986C11.6814 780.017 -1.01218 761.221 1.66683 741.267L43.2311 431.689C44.1469 424.868 44.1846 417.957 43.3432 411.127L28.7562 292.697C27.4709 282.262 28.2621 271.675 31.0844 261.547L49.2477 196.363Z" stroke="#F5F0F7" stroke-width="0.80136"/>
<path d="M110.107 675.481L122.336 728.221L143.889 728.221L138.701 675.481L110.107 675.481Z" fill="#BC8567"/>
<path d="M146.229 717.188C146.229 717.188 155.591 732.963 148.569 735.772C141.548 738.581 95.3215 738.826 83.9113 737.055C72.5011 735.263 109.365 718.959 117.791 716.394C126.217 713.83 128.948 727.203 146.229 717.188Z" fill="#6842C2"/>
<path d="M177.983 675.481L185.376 728.221L206.928 728.221L206.577 675.481L177.983 675.481Z" fill="#BC8567"/>
<path d="M209.267 717.188C209.267 717.188 218.63 732.963 211.608 735.772C204.586 738.581 158.36 738.825 146.95 737.054C135.54 735.263 172.403 718.959 180.829 716.394C189.256 713.829 191.986 727.203 209.267 717.188Z" fill="#6842C2"/>
<path d="M214.203 420.413L212.603 701.841L178.392 701.841L154.226 495.075L126.685 578.979L147.302 701.862L110.087 701.862C110.087 701.862 77.3774 595.67 78.7037 574.826C80.03 553.962 117.791 411.844 117.791 411.844L214.203 420.413Z" fill="#E9E9F0"/>
<path d="M148.103 510.361L153.156 494.953L150.8 470.017L148.103 510.361Z" fill="#E1E1E8" stroke="#E1E1E8" stroke-width="2.14658"/>
<path d="M194.891 417.014L196.863 701.861" stroke="#E1E1E8" stroke-width="2.14658" stroke-miterlimit="10"/>
<path d="M90.1336 291.525C90.1336 291.525 68.0348 335.145 67.5471 348.539C67.0595 361.933 81.2004 358.94 88.5147 346.87C95.8289 334.779 107.532 300.501 107.532 300.501L90.1336 291.525Z" fill="#BC8567"/>
<path d="M85.9984 295.169C85.9984 295.169 92.3374 306.934 107.532 314.119C110.672 315.605 113.324 311.677 115.294 307.015C117.576 301.581 118.903 295.169 118.903 295.169C118.903 295.169 136.32 238.928 120.97 240.943C120.97 240.943 107.902 241.9 98.3059 261.644C95.7898 266.794 91.8693 277.175 88.5925 287.027C87.6563 289.836 86.7786 292.584 85.9984 295.169Z" fill="#47248F"/>
<path d="M85.9984 295.168C85.9984 295.168 92.3374 306.934 107.532 314.119C110.672 315.605 113.324 311.676 115.294 307.015C109.346 304.226 98.0913 297.957 88.5926 287.026C87.6563 289.835 86.7786 292.583 85.9984 295.168Z" fill="#04D361"/>
<path d="M117.011 414.917C126.666 426.356 190.231 424.667 214.222 420.412C218.435 419.659 222.59 417.97 215.939 402.663C213.442 396.943 214.515 382.226 214.944 361.994C215.783 321.996 227.154 255.639 213.13 248.026C204.723 243.446 186.877 237.421 173.906 233.309C173.126 233.085 172.365 232.841 171.624 232.597C164.056 230.236 158.653 228.668 158.653 228.668C158.653 228.668 152.392 229.625 139.656 233.554C138.973 233.757 138.232 234.001 137.491 234.225C134.175 235.284 130.489 236.505 126.373 237.971C118.396 240.8 112.544 242.53 111.12 245.298C107.317 252.565 108.78 265.45 108.546 284.014C108.234 307.32 108.468 404.82 117.011 414.917Z" fill="#6842C2"/>
<path d="M217.928 316.704L204.216 281.816L214.202 371.561L217.928 316.704Z" fill="#47248F"/>
<path d="M137.49 234.246C137.783 239.172 139.909 243.507 143.108 246.683C146.385 249.94 150.812 251.914 155.63 251.914C165.597 251.914 173.672 243.589 173.867 233.289C173.087 233.065 172.326 232.821 171.585 232.577C164.017 230.216 158.614 228.648 158.614 228.648C158.614 228.648 152.353 229.605 139.616 233.533C138.953 233.798 138.232 234.022 137.49 234.246Z" fill="#04D361"/>
<path d="M129.178 157.455C129.178 157.455 136.401 150.252 147.329 148.538C163.314 146.032 184.361 151.459 188.554 176.927C191.87 191.603 174.725 215.723 168.249 214.319C168.249 214.319 109.96 175.812 129.178 157.455Z" fill="#43302D"/>
<path d="M140.077 192.117L140.533 223.744L140.667 232.771C140.709 236.602 142.208 240.076 144.617 242.624C147.006 245.172 150.307 246.774 153.972 246.902C161.73 247.173 168.201 240.719 168.288 232.636L168.459 216.552L168.729 189.819L140.077 192.117Z" fill="#BC8567"/>
<path d="M139.857 198.404L140.378 228.199C153.75 229.236 163.734 223.882 168.482 216.471L168.529 196.105L139.857 198.404Z" fill="#765441"/>
<path d="M130.088 173.581C130.088 173.581 128.734 183.839 129.721 195.259C130.86 208.477 129.754 223.917 148.314 225.604C168.12 227.396 175.498 204.455 175.498 204.455C175.498 204.455 186.115 202.769 187.096 195.369C188.076 187.969 180.723 187.284 178.253 189.276C178.253 189.276 176.491 161.474 151.969 160.617C130.273 159.88 130.088 173.581 130.088 173.581Z" fill="#BC8567"/>
<path d="M152.049 194.065C151.97 195.202 152.782 196.177 153.871 196.253C154.96 196.33 155.9 195.477 155.979 194.34C156.059 193.203 155.247 192.229 154.158 192.152C153.088 192.078 152.129 192.929 152.049 194.065Z" fill="#60423D"/>
<path d="M133.192 191.686C133.112 192.823 133.924 193.797 135.013 193.874C136.102 193.95 137.042 193.097 137.121 191.96C137.201 190.823 136.389 189.849 135.3 189.773C134.21 189.696 133.271 190.549 133.192 191.686Z" fill="#60423D"/>
<path d="M163.458 187.272C163.458 187.272 160.909 182.075 154.577 183.448" stroke="#43302D" stroke-width="2.14658" stroke-miterlimit="10" stroke-linecap="round" stroke-linejoin="round"/>
<path d="M143.918 182.622C143.918 182.622 139.741 178.046 135.018 182.408" stroke="#43302D" stroke-width="2.14658" stroke-miterlimit="10" stroke-linecap="round" stroke-linejoin="round"/>
<path d="M146.185 189.574C146.185 189.574 143.669 195.071 141.612 198.478C139.557 201.864 144.799 203.802 144.799 203.802" stroke="#765441" stroke-width="1.60994" stroke-miterlimit="10" stroke-linecap="round" stroke-linejoin="round"/>
<path d="M151.868 210.642C151.868 210.642 147.181 214.762 141.748 211.668" stroke="#765441" stroke-width="1.60994" stroke-miterlimit="10" stroke-linecap="round" stroke-linejoin="round"/>
<path d="M178.12 198.171C178.12 198.171 178.622 191.821 183.054 193.865" stroke="#765441" stroke-width="1.60994" stroke-miterlimit="10" stroke-linecap="round" stroke-linejoin="round"/>
<path d="M173.291 166.473C173.291 166.473 162.135 178.34 168.24 182.879C175.027 187.927 176.1 195.092 176.1 195.092C176.1 195.092 175.964 192.568 178.987 187.948C182.01 183.327 188.603 166.921 173.291 166.473Z" fill="#43302D"/>
<path d="M233.102 293.865C233.102 293.865 255.201 337.486 255.689 350.88C256.176 364.273 242.036 361.281 234.721 349.211C227.407 337.12 215.704 302.842 215.704 302.842L233.102 293.865Z" fill="#BC8567"/>
<path d="M75.5239 333.782C75.5239 333.782 108.467 308.338 110.34 306.893C113.519 304.41 118.161 300.807 119.839 299.586C122.491 297.652 137.997 294.843 140.162 295.209C142.308 295.576 148.257 296.634 149.993 297.306C151.729 297.978 149.544 300.298 147.828 301.397C146.111 302.496 138.505 306.608 132.049 307.85C128.46 308.542 125.378 310.435 122.862 312.328C120.853 313.834 86.0955 350.819 84.7887 351.715L75.5239 333.782Z" fill="#BC8567"/>
<path d="M116.309 302.557C116.309 302.557 128.713 290.446 130.566 290.629C132.4 290.812 131.093 293.54 126.217 297.672C124.559 299.076 122.784 301.295 121.302 302.028C118.396 303.453 116.309 302.557 116.309 302.557Z" fill="#BC8567"/>
<path d="M126.305 346.231L126.311 346.232L171.541 351.87C171.542 351.87 171.542 351.871 171.542 351.871C173.358 352.095 174.962 350.314 174.464 348.31C174.464 348.31 174.464 348.31 174.464 348.309L163.658 304.954L163.658 304.953C163.369 303.791 162.444 302.977 161.374 302.849L161.374 302.849L161.368 302.849L116.138 297.21C114.322 296.986 112.717 298.767 113.215 300.771L124.021 344.127L124.021 344.127C124.31 345.29 125.235 346.104 126.305 346.231Z" fill="#04D361" stroke="#04D361" stroke-width="2.14658"/>
<path d="M124.167 348.742L169.399 354.381C172.032 354.706 174.158 352.162 173.495 349.496L162.689 306.139C162.299 304.572 161.031 303.412 159.49 303.229L114.259 297.59C111.626 297.265 109.5 299.809 110.163 302.475L120.969 345.832C121.359 347.379 122.627 348.539 124.167 348.742Z" fill="white"/>
<path d="M158.974 314.874L158.974 314.874L158.976 314.884C158.982 314.91 158.997 314.938 159.025 314.963C159.05 314.986 159.08 315.002 159.11 315.009L161.26 315.27L161.26 315.27C161.278 315.272 161.29 315.269 161.301 315.265C161.315 315.259 161.335 315.246 161.355 315.222C161.395 315.174 161.416 315.106 161.396 315.029L161.396 315.028L159.27 306.521L159.268 306.512L159.266 306.502C159.247 306.422 159.195 306.394 159.165 306.39L156.984 306.126L156.984 306.126C156.966 306.124 156.954 306.126 156.943 306.131C156.929 306.137 156.909 306.15 156.889 306.173C156.849 306.221 156.828 306.289 156.848 306.366L156.848 306.367L158.974 314.874Z" fill="#04D361" stroke="#04D361" stroke-width="2.14658"/>
<path d="M247.244 337.975C233.435 338.545 190.271 337.609 184.556 335.573C182.098 334.698 176.052 333.375 174.511 330.871C172.951 328.327 171.624 324.459 170.005 324.174C168.757 323.95 169.05 328.144 169.42 329.67C170.122 332.418 170.591 333.843 171.527 335.105C171.839 335.532 161.209 337.12 154.538 335.349C149.955 334.128 150.813 337.955 153.895 339.563C153.895 339.563 152.666 342.901 155.904 344C155.904 344 155.338 347.705 158.459 347.99C158.79 348.906 159.766 350.554 162.457 351.348C166.358 352.488 173.126 352.468 178.275 352.692C181.318 352.814 240.125 362.401 250.521 359.673C254.851 358.534 251.73 337.792 247.244 337.975Z" fill="#BC8567"/>
<path d="M207.61 299.728C207.61 299.728 208.625 303.738 210.126 307.87C211.804 312.43 214.086 317.112 216.329 316.684C216.329 316.684 246.834 306.629 245.82 303.372C245.059 300.95 243.752 297.795 242.134 294.294C237.082 283.343 229.065 269.053 225.828 263.517C214.788 244.607 210.263 247.009 210.263 247.009C194.796 246.235 207.61 299.728 207.61 299.728Z" fill="#6842C2"/>
<path d="M210.126 307.87C211.804 312.43 214.086 317.111 216.329 316.684C216.329 316.684 246.834 306.629 245.82 303.372C245.059 300.95 243.752 297.795 242.134 294.293C236.516 297.062 221.361 304.328 210.126 307.87Z" fill="#04D361"/>
<path d="M200.452 397.005C200.452 397.005 149.74 388.517 122.433 371.561C122.433 371.561 152.977 403.457 200.452 397.005Z" fill="#47248F"/>
<path d="M271.41 88.7911L223.52 88.7911C220.314 88.7911 217.712 84.1689 217.712 78.4761L217.712 52.5184C217.712 46.8256 220.314 42.2034 223.52 42.2034L271.41 42.2034C274.615 42.2034 277.218 46.8256 277.218 52.5184L277.218 78.4761C277.218 84.1815 274.615 88.7911 271.41 88.7911Z" fill="#6842C2"/>
<path d="M238.451 84.2302L238.451 103.55L258.304 82.8533L238.451 84.2302Z" fill="#6842C2"/>
<defs>
<filter id="filter0_f_156_774" x="9.89265" y="91.7515" width="277.061" height="693.112" filterUnits="userSpaceOnUse" color-interpolation-filters="sRGB">
<feFlood flood-opacity="0" result="BackgroundImageFix"/>
<feBlend mode="normal" in="SourceGraphic" in2="BackgroundImageFix" result="shape"/>
<feGaussianBlur stdDeviation="7.00448" result="effect1_foregroundBlur_156_774"/>
</filter>
</defs>
</svg>
