<svg width="51" height="51" viewBox="0 0 51 51" fill="none" xmlns="http://www.w3.org/2000/svg">
<g style="mix-blend-mode:overlay" filter="url(#filter0_d_339_2569)">
<path d="M34.5 38.0006C38.6421 38.0006 42 34.643 42 30.5006C42 26.3586 38.6421 23.0007 34.5 23.0007C30.3579 23.0007 27 26.3586 27 30.5006C27 34.643 30.3579 38.0006 34.5 38.0006Z" stroke="white" stroke-width="3" stroke-linecap="round" stroke-linejoin="round"/>
<path d="M44.9986 40.9994L39.8086 35.8094" stroke="white" stroke-width="3" stroke-linecap="round" stroke-linejoin="round"/>
<path d="M25.5 6.5006C25.5 4.01534 23.4853 2.00061 21 2.00061H6V32.0005H21" stroke="white" stroke-width="3" stroke-linecap="round" stroke-linejoin="round"/>
<path d="M25.5 6.50073V20.0007" stroke="white" stroke-width="3" stroke-linecap="round" stroke-linejoin="round"/>
<path d="M25.5 6.5C25.5 4.01471 27.5147 2 30 2H45V23.0007" stroke="white" stroke-width="3" stroke-linecap="round" stroke-linejoin="round"/>
</g>
<defs>
<filter id="filter0_d_339_2569" x="0.5" y="0.5" width="50" height="49.9994" filterUnits="userSpaceOnUse" color-interpolation-filters="sRGB">
<feFlood flood-opacity="0" result="BackgroundImageFix"/>
<feColorMatrix in="SourceAlpha" type="matrix" values="0 0 0 0 0 0 0 0 0 0 0 0 0 0 0 0 0 0 127 0" result="hardAlpha"/>
<feOffset dy="4"/>
<feGaussianBlur stdDeviation="2"/>
<feComposite in2="hardAlpha" operator="out"/>
<feColorMatrix type="matrix" values="0 0 0 0 0 0 0 0 0 0 0 0 0 0 0 0 0 0 0.25 0"/>
<feBlend mode="normal" in2="BackgroundImageFix" result="effect1_dropShadow_339_2569"/>
<feBlend mode="normal" in="SourceGraphic" in2="effect1_dropShadow_339_2569" result="shape"/>
</filter>
</defs>
</svg>
