<svg width="780" height="532" viewBox="0 0 833 537" fill="none" xmlns="http://www.w3.org/2000/svg">
   <path d="M41.5321 93.1009C64.9959 15.641 152.491 -22.1049 224.938 13.9784L346.495 74.522C365.43 83.9524 386.37 88.6478 407.518 88.2049L639.17 83.3541C686.486 82.3633 730.642 107.021 754.62 147.823L814.492 249.703C867.811 340.434 797.541 453.767 692.565 446.351L567.108 437.487C549.967 436.276 532.754 438.456 516.456 443.903L258.367 530.154C198.36 550.208 132.604 524.414 102.237 468.91L16.2302 311.708C-0.615453 280.918 -4.37363 244.648 5.80121 211.058L41.5321 93.1009Z" fill="#774FD1" />
</svg>