<svg width="782" height="493" viewBox="0 0 782 493" fill="none" xmlns="http://www.w3.org/2000/svg">
<path d="M390.545 476.915C392.389 468.502 397.468 460.907 404.392 456.186" stroke="#04D361" stroke-width="0.998586" stroke-miterlimit="10"/>
<path d="M390.252 479.289C390.79 472.229 394.004 455.301 400.569 444.863" stroke="#04D361" stroke-width="0.998586" stroke-miterlimit="10"/>
<path d="M390.376 478.417C391.887 465.845 392.281 451.908 390.832 439.33" stroke="#04D361" stroke-width="0.998586" stroke-miterlimit="10"/>
<path d="M405.503 452.905L405.501 452.907C405.437 453.015 405.374 453.124 405.31 453.232C404.402 454.773 403.496 456.311 402.389 457.754C402.671 457.667 402.97 457.56 403.283 457.443C403.435 457.385 403.593 457.324 403.753 457.263C404.087 457.135 404.43 457.003 404.755 456.889C405.238 456.721 405.74 456.572 406.206 456.516L406.207 456.516C408.358 456.263 410.539 456.429 412.627 456.787L412.628 456.787C414.256 457.067 415.876 457.462 417.47 457.85C417.987 457.976 418.502 458.102 419.013 458.222C421.117 458.718 423.187 459.14 425.285 459.243L425.285 459.243C426.475 459.302 427.743 459.184 428.824 458.794C429.899 458.405 430.749 457.763 431.205 456.787L431.205 456.785C431.962 455.177 431.31 453.018 429.92 451.724L429.918 451.723C428.542 450.433 426.615 449.873 424.616 449.601L424.615 449.601C423.887 449.501 423.157 449.437 422.41 449.371C422.134 449.347 421.855 449.322 421.573 449.296C420.541 449.199 419.484 449.075 418.44 448.829L418.438 448.828C417.815 448.68 417.2 448.49 416.605 448.301C416.511 448.271 416.417 448.241 416.325 448.211C415.823 448.051 415.336 447.896 414.848 447.761C413.692 447.443 412.609 447.265 411.538 447.444L405.503 452.905ZM405.503 452.905C406.253 451.62 407.117 450.353 408.127 449.354M405.503 452.905L408.127 449.354M408.127 449.354C409.136 448.358 410.262 447.657 411.538 447.444L408.127 449.354Z" fill="#04D361" stroke="#04D361" stroke-width="1.28188"/>
<path d="M414.315 425.489L414.315 425.489C416.172 425.016 418.086 425.104 420.084 425.36C420.765 425.448 421.466 425.557 422.179 425.667C423.51 425.874 424.878 426.086 426.213 426.173L426.216 426.173C426.857 426.212 427.512 426.224 428.151 426.235C428.462 426.241 428.77 426.246 429.07 426.255C430.004 426.281 430.905 426.337 431.786 426.506C433.537 426.843 435.195 427.725 435.976 429.218L435.977 429.22C436.583 430.372 436.569 431.755 436.081 433.066C435.592 434.378 434.648 435.556 433.499 436.258C431.139 437.701 428.174 437.706 425.277 437.268C424.437 437.141 423.631 436.988 422.812 436.833C422.19 436.714 421.561 436.595 420.903 436.484C419.424 436.236 417.907 436.055 416.357 436.128C412.412 436.308 408.696 438.119 405.601 440.52C404.471 441.393 403.444 442.526 402.464 443.606C402.358 443.723 402.252 443.84 402.146 443.956C401.335 444.847 400.551 445.68 399.733 446.347C399.78 446.101 399.853 445.814 399.95 445.489C400.268 444.424 400.812 443.071 401.428 441.678C402.362 439.567 403.431 437.43 404.081 436.13C404.29 435.713 404.455 435.382 404.559 435.166C406.711 430.724 409.933 426.603 414.315 425.489Z" fill="#04D361" stroke="#04D361" stroke-width="1.28188"/>
<path d="M394.161 427.296L394.162 427.297C394.453 429.707 393.985 432.153 393.185 434.493C393.127 434.659 393.058 434.869 392.979 435.111C392.738 435.848 392.401 436.878 391.995 437.848C391.727 438.49 391.444 439.069 391.16 439.491C391.018 439.701 390.89 439.853 390.779 439.951C390.665 440.052 390.605 440.066 390.599 440.067L390.598 440.067C390.474 440.088 390.213 440.042 389.79 439.803C389.392 439.578 388.947 439.237 388.497 438.84C387.602 438.049 386.768 437.107 386.364 436.636C385.129 435.181 384.164 433.483 383.594 431.641L383.594 431.639C382.927 429.513 382.749 427.26 382.576 424.921L382.565 424.768C382.397 422.501 382.224 420.153 381.559 417.907L381.559 417.906C380.802 415.36 379.442 413.062 378.137 410.854C377.793 410.274 377.454 409.7 377.13 409.13C375.548 406.342 374.223 403.363 374.352 400.287C374.416 398.775 374.939 397.23 375.798 396.019C376.658 394.808 377.821 393.971 379.16 393.772L379.161 393.771C380.929 393.504 382.777 394.338 384.292 395.623L384.293 395.624C386.432 397.432 387.955 400.023 388.546 402.853C388.9 404.563 388.919 406.331 388.934 408.172L388.934 408.245C388.949 410.042 388.964 411.909 389.33 413.736C389.784 416.029 390.771 418.154 391.718 420.193C391.79 420.348 391.861 420.503 391.933 420.657C392.955 422.868 393.886 424.997 394.161 427.296Z" fill="#04D361" stroke="#04D361" stroke-width="1.28188"/>
<path d="M390.302 477.223C389.899 466.055 387.592 453.374 381.944 443.896" stroke="#04D361" stroke-width="0.998586" stroke-miterlimit="10"/>
<path d="M380.792 435.452L380.793 435.454C381.561 437.972 381.999 440.598 382.348 443.238L382.348 443.24C382.367 443.378 382.4 443.555 382.434 443.731C382.447 443.799 382.459 443.867 382.471 443.933C382.518 444.187 382.56 444.448 382.579 444.696C382.598 444.95 382.59 445.154 382.555 445.304C382.522 445.45 382.477 445.489 382.464 445.498L382.463 445.499L382.463 445.499C382.459 445.502 382.416 445.533 382.263 445.504C382.103 445.473 381.896 445.388 381.657 445.249C381.184 444.974 380.723 444.57 380.491 444.339C380.075 443.914 379.711 443.426 379.347 442.897C379.218 442.709 379.085 442.51 378.949 442.306C378.716 441.957 378.474 441.594 378.229 441.257L378.229 441.256C374.925 436.702 369.529 434.376 364.27 433.401C361.639 432.914 358.983 432.717 356.347 432.581C355.651 432.545 354.956 432.513 354.265 432.481C352.326 432.393 350.405 432.305 348.488 432.126L348.483 432.126C347.291 432.023 346.223 431.85 345.45 431.234C344.431 430.417 344.045 428.796 344.419 427.338C344.79 425.903 345.789 424.662 346.994 423.657L346.995 423.657C349.658 421.434 353.125 420.389 356.589 420.274C360.054 420.159 363.524 420.928 366.904 422.01L366.904 422.01C370.161 423.052 373.324 424.408 375.768 426.709C378.188 428.994 379.788 432.125 380.792 435.452ZM383.059 443.591C383.028 443.423 382.999 443.274 382.983 443.154L380.036 444.791C380.543 445.295 382.06 446.576 382.837 446.02C383.438 445.589 383.21 444.384 383.059 443.591Z" fill="#04D361" stroke="#04D361" stroke-width="1.28188"/>
<path d="M390.039 478.406C389.912 468.671 386.053 459.049 379.511 452.131" stroke="#04D361" stroke-width="0.998586" stroke-miterlimit="10"/>
<path d="M380.021 452.591C379.973 452.481 379.926 452.371 379.88 452.26C379.752 451.956 379.626 451.64 379.51 451.348C379.454 451.21 379.401 451.077 379.351 450.953C379.186 450.546 379.063 450.261 378.98 450.119C378.273 448.901 377.629 447.831 376.631 447.195L376.624 447.19L376.616 447.185C376.462 447.081 376.305 446.986 376.132 446.882C373.836 445.502 371.214 444.563 368.624 443.707L380.021 452.591ZM380.021 452.591C376.896 451.577 373.421 451.49 370.384 451.414L370.347 451.413C370.347 451.413 370.347 451.413 370.346 451.413C366.193 451.305 362.011 451.965 358.075 453.39L358.072 453.391C357.551 453.583 357.053 453.778 356.563 453.971C355.86 454.247 355.173 454.517 354.451 454.761C353.259 455.164 352.089 455.452 350.899 455.478C350.264 455.489 349.592 455.37 349.057 455.111C348.529 454.855 348.175 454.487 348.045 453.999C347.841 453.2 348.277 452.289 348.963 451.402L348.964 451.4C350.329 449.619 352.06 448.182 353.845 446.704C356.175 444.78 358.479 442.936 361.176 442.486L380.021 452.591ZM361.176 442.486C363.597 442.085 366.084 442.868 368.623 443.707L361.176 442.486Z" fill="#04D361" stroke="#04D361" stroke-width="1.28188"/>
<path d="M675.064 448.809L675.065 448.809C676.214 447.697 677.008 446.334 677.638 444.919C678.112 443.856 678.507 442.731 678.888 441.647C679.01 441.299 679.131 440.955 679.253 440.618C680.274 437.791 681.682 435.038 684.046 433.95C686.771 432.699 689.836 434.103 692.444 435.99C692.74 436.205 693.042 436.428 693.348 436.655C694.359 437.403 695.421 438.189 696.525 438.827C697.979 439.667 699.576 440.294 701.369 440.29C702.789 440.287 704.169 439.879 705.449 439.493L705.541 439.465C706.819 439.08 708 438.723 709.187 438.677C712.517 438.559 715.329 440.878 718.017 443.311L718.018 443.312C719.961 445.066 721.804 446.821 722.348 449.218L722.348 449.218C723.008 452.123 721.48 455.518 719.029 457.503L719.028 457.504C716.588 459.493 713.414 460.242 710.355 460.205L710.354 460.205C709.986 460.202 709.599 460.19 709.201 460.178C708.111 460.146 706.935 460.11 705.833 460.232C704.296 460.402 702.769 460.883 701.577 462.163L701.577 462.163C700.419 463.409 699.98 465.011 699.646 466.518C699.593 466.757 699.542 466.994 699.493 467.227C699.218 468.516 698.962 469.711 698.401 470.764C697.063 473.25 694.092 474.5 691.37 474.393C688.645 474.287 686.112 473.121 683.506 471.922L683.439 471.891C680.85 470.701 678.016 469.444 674.937 469.478C673.219 469.495 671.552 469.913 669.944 470.468C668.868 470.839 667.786 471.284 666.729 471.719C666.222 471.928 665.72 472.135 665.227 472.33L665.226 472.33C663.883 472.864 662.029 473.582 660.282 473.82C658.512 474.062 657.102 473.784 656.329 472.643L656.327 472.64C655.982 472.135 655.811 471.44 655.802 470.578C655.794 469.719 655.948 468.748 656.197 467.742C656.682 465.792 657.501 463.816 658.07 462.444C658.088 462.4 658.106 462.356 658.124 462.313C659.643 458.664 662.076 455.306 665.338 453.513C666.493 452.88 667.727 452.446 669.012 451.994C669.417 451.851 669.827 451.707 670.241 451.554C671.934 450.93 673.65 450.174 675.064 448.809Z" fill="#04D361" stroke="#04D361" stroke-width="1.28188"/>
<path d="M656.369 472.693C672.348 459.349 690.747 450.784 710.393 447.554" stroke="white" stroke-width="0.903343" stroke-miterlimit="10" stroke-linecap="round" stroke-linejoin="round"/>
<path d="M672.434 451.872C672.955 447.305 672.295 442.502 673.89 438.215C676.732 430.579 685.79 426.857 688.299 419.1C691.303 409.827 683.465 399.981 685.223 390.373C685.958 386.324 688.33 382.819 689.861 379.017C691.393 375.214 691.922 370.404 689.315 367.309C686.584 364.076 681.414 364.26 677.951 366.645C674.488 369.029 672.402 373.019 670.68 376.96C668.968 380.902 667.437 385.033 664.656 388.256C659.591 394.124 650.768 396.467 647.856 403.749C644.894 411.162 649.726 419.285 650.356 427.274C650.833 433.323 648.865 439.263 647.09 445.063C645.325 450.864 643.724 457.011 644.95 462.941C646.586 470.843 653.174 476.072 659.834 471.269C666.42 466.549 671.47 460.462 672.434 451.872Z" fill="#04D361"/>
<path d="M655.657 473.045C654.061 444.991 661.011 414.863 675.613 391.193" stroke="white" stroke-width="1.45673" stroke-miterlimit="10" stroke-linecap="round" stroke-linejoin="round"/>
<path d="M638.891 461.902C636.208 457.637 634.772 452.369 631.041 449.064C626.768 445.266 620.67 445.016 615.099 444.347C609.516 443.678 603.265 441.806 600.85 436.516C599.53 433.611 599.648 430.222 598.765 427.15C597.787 423.772 595.649 420.924 594.187 417.747C592.736 414.57 592.048 410.569 593.968 407.656C595.912 404.708 599.971 403.961 603.231 405.048C606.492 406.135 609.108 408.647 611.489 411.211C613.87 413.776 616.187 416.508 619.169 418.242C624.115 421.103 630.116 420.814 635.782 420.756C641.448 420.711 647.609 421.169 651.854 425.088C655.343 428.311 656.814 433.24 658.119 437.92C660.007 444.614 661.942 451.286 663.77 458.003C664.896 462.129 667.099 468.47 662.913 471.535C655.533 476.933 642.822 468.133 638.891 461.902Z" fill="#04D361"/>
<path d="M660.635 471.699C652.408 449.616 634.035 430.414 611.552 421.443" stroke="white" stroke-width="1.04781" stroke-miterlimit="10" stroke-linecap="round" stroke-linejoin="round"/>
<path d="M142.931 452.619C145.643 448.712 147.312 443.638 150.872 440.831C154.958 437.629 160.402 438.257 165.433 438.372C170.452 438.498 176.162 437.518 178.713 432.547C180.113 429.823 180.245 426.398 181.269 423.429C182.385 420.172 184.502 417.619 186.04 414.632C187.566 411.645 188.472 407.723 186.987 404.521C185.469 401.281 181.914 399.953 178.932 400.579C175.95 401.205 173.427 403.354 171.123 405.585C168.819 407.815 166.555 410.23 163.759 411.543C159.138 413.717 153.817 412.558 148.766 411.688C143.714 410.831 138.193 410.419 134.126 413.743C130.778 416.485 129.109 421.231 127.588 425.739C125.416 432.194 123.199 438.624 121.073 445.106C119.768 449.098 117.331 455.143 120.838 458.829C126.986 465.344 138.967 458.319 142.931 452.619Z" fill="#04D361"/>
<path d="M122.836 459.361C131.798 438.341 149.583 421.678 170.275 415.869" stroke="white" stroke-width="0.997433" stroke-miterlimit="10" stroke-linecap="round" stroke-linejoin="round"/>
<path d="M112.218 440.345C112.086 436.12 112.891 431.757 111.878 427.72C110.066 420.542 103.048 416.587 101.507 409.321C99.6659 400.633 106.515 392.066 105.696 383.134C105.35 379.376 103.661 376.021 102.667 372.434C101.673 368.848 101.537 364.404 103.81 361.722C106.193 358.911 110.302 359.395 112.933 361.798C115.553 364.2 116.983 367.984 118.124 371.697C119.253 375.41 120.236 379.3 122.259 382.423C125.953 388.111 132.865 390.785 134.746 397.649C136.67 404.637 132.317 411.795 131.34 419.095C130.599 424.628 131.815 430.192 132.884 435.618C133.953 441.043 134.86 446.779 133.519 452.157C131.742 459.308 126.157 463.71 121.127 458.913C116.152 454.178 112.477 448.284 112.218 440.345Z" fill="#04D361"/>
<path d="M124.348 460.776C127.306 435.131 123.555 407.062 113.319 384.458" stroke="white" stroke-width="1.25035" stroke-miterlimit="10" stroke-linecap="round" stroke-linejoin="round"/>
<path d="M115.724 433.009L115.723 433.008C114.369 431.955 112.904 431.156 111.394 430.333C110.914 430.071 110.43 429.807 109.944 429.532C107.953 428.406 105.977 427.112 104.403 425.072C102.188 422.213 101.243 418.463 100.359 414.956C100.232 414.452 100.106 413.954 99.9784 413.464L99.9779 413.463C99.4694 411.493 98.8293 409.476 97.9487 407.706C97.067 405.935 95.9646 404.453 94.5537 403.505C91.2981 401.33 87.5039 402.719 84.2572 404.817L84.2558 404.818C83.883 405.058 83.5039 405.308 83.1191 405.562C81.8573 406.395 80.5342 407.269 79.1713 407.937C77.3732 408.818 75.4228 409.389 73.2884 409.082L115.724 433.009ZM115.724 433.009C119.584 436.004 122.31 440.996 123.9 446.215C123.921 446.284 123.943 446.355 123.964 446.426C124.551 448.361 125.402 451.164 125.856 453.884C126.091 455.294 126.214 456.656 126.146 457.846C126.077 459.045 125.817 460.003 125.344 460.663L125.343 460.666C124.319 462.109 122.593 462.239 120.471 461.612C118.374 460.992 116.18 459.704 114.601 458.756L114.601 458.756C114.035 458.417 113.462 458.063 112.883 457.706C111.632 456.933 110.356 456.146 109.076 455.458C107.193 454.446 105.233 453.61 103.181 453.295L103.181 453.295C99.5073 452.731 96.0215 453.933 92.8359 455.105L92.7445 455.139C89.5472 456.315 86.4346 457.461 83.1432 457.129C79.8546 456.796 76.2783 454.604 74.7796 450.892C74.156 449.338 73.9213 447.633 73.676 445.851C73.632 445.532 73.5877 445.21 73.5407 444.886C73.2389 442.804 72.8266 440.651 71.5718 438.857C70.2832 437.007 68.5342 436.11 66.7037 435.619C65.386 435.266 63.9706 435.113 62.6528 434.971C62.181 434.921 61.7216 434.871 61.2837 434.814L61.2825 434.814C57.6051 434.344 53.8049 432.788 50.9546 429.646L50.9538 429.645C48.0874 426.497 46.4155 421.555 47.4378 417.632C48.28 414.421 50.6506 412.34 53.0753 410.335L53.0759 410.334C54.7518 408.944 56.4831 407.568 58.3172 406.632C60.1411 405.701 62.0246 405.228 64.015 405.593L64.016 405.593M115.724 433.009L64.016 405.593M64.016 405.593C65.4571 405.855 66.8706 406.544 68.383 407.281M64.016 405.593L68.383 407.281M68.383 407.281L68.4769 407.327M68.383 407.281L68.4769 407.327M68.4769 407.327C69.9867 408.063 71.6009 408.84 73.2882 409.082L68.4769 407.327Z" fill="#04D361" stroke="#04D361" stroke-width="1.28188"/>
<path d="M125.197 460.514C106.909 439.855 85.3811 425.214 62.0133 417.538" stroke="white" stroke-width="1.1519" stroke-miterlimit="10" stroke-linecap="round" stroke-linejoin="round"/>
<path d="M681.857 117.298C681.722 121.149 678.622 124.166 674.932 124.037C671.242 123.909 668.359 120.682 668.494 116.831C668.628 112.98 671.729 109.963 675.419 110.091C679.097 110.22 681.991 113.447 681.857 117.298Z" stroke="#04D361" stroke-width="2.56376" stroke-miterlimit="10" stroke-linecap="round" stroke-linejoin="round"/>
<path d="M679.839 122.044L684.38 127.14" stroke="#04D361" stroke-width="2.56376" stroke-miterlimit="10" stroke-linecap="round" stroke-linejoin="round"/>
<path d="M423.72 14.2463L430.494 21.828" stroke="#04D361" stroke-width="2.56376" stroke-miterlimit="10" stroke-linecap="round" stroke-linejoin="round"/>
<path d="M430.75 14.4918L423.464 21.5825" stroke="#04D361" stroke-width="2.56376" stroke-miterlimit="10" stroke-linecap="round" stroke-linejoin="round"/>
<path d="M509.728 440.116L516.501 447.698" stroke="#04D361" stroke-width="2.56376" stroke-miterlimit="10" stroke-linecap="round" stroke-linejoin="round"/>
<path d="M516.757 440.362L509.472 447.452" stroke="#04D361" stroke-width="2.56376" stroke-miterlimit="10" stroke-linecap="round" stroke-linejoin="round"/>
<path d="M67.01 327.32L66.6477 337.694" stroke="#04D361" stroke-width="2.56376" stroke-miterlimit="10" stroke-linecap="round" stroke-linejoin="round"/>
<path d="M71.8121 332.68L61.8594 332.333" stroke="#04D361" stroke-width="2.56376" stroke-miterlimit="10" stroke-linecap="round" stroke-linejoin="round"/>
<path d="M48.1715 246.912C48.0501 250.386 45.2507 253.122 41.9098 253.005C38.5806 252.889 35.9668 249.976 36.0885 246.49C36.2099 243.015 39.0093 240.279 42.3502 240.396C45.6906 240.525 48.2928 243.437 48.1715 246.912Z" stroke="#04D361" stroke-width="2.56376" stroke-miterlimit="10" stroke-linecap="round" stroke-linejoin="round"/>
<path d="M293.602 408.159C293.48 411.633 290.681 414.369 287.34 414.253C284.011 414.137 281.397 411.223 281.519 407.737C281.64 404.263 284.439 401.526 287.78 401.643C291.121 401.772 293.723 404.685 293.602 408.159Z" stroke="#04D361" stroke-width="2.56376" stroke-miterlimit="10" stroke-linecap="round" stroke-linejoin="round"/>
<path d="M696.259 308.534C696.137 312.008 693.338 314.744 689.997 314.628C686.668 314.512 684.054 311.598 684.176 308.112C684.297 304.638 687.096 301.901 690.437 302.018C693.778 302.147 696.38 305.06 696.259 308.534Z" stroke="#04D361" stroke-width="2.56376" stroke-miterlimit="10" stroke-linecap="round" stroke-linejoin="round"/>
<path d="M15.4265 135.142C15.3939 136.075 14.6508 136.759 13.8216 136.731C12.9924 136.702 12.2988 135.967 12.3314 135.034C12.364 134.1 13.1071 133.416 13.9363 133.445C14.7655 133.474 15.459 134.208 15.4265 135.142Z" fill="#F5F0F7" stroke="#F5F0F7" stroke-width="1.28188"/>
<path d="M30.7106 135.675C30.678 136.609 29.9349 137.293 29.1058 137.264C28.2766 137.235 27.583 136.501 27.6156 135.567C27.6482 134.634 28.3913 133.949 29.2205 133.978C30.0497 134.007 30.7432 134.742 30.7106 135.675Z" fill="#F5F0F7" stroke="#F5F0F7" stroke-width="1.28188"/>
<path d="M45.9832 136.209C45.9506 137.142 45.2075 137.827 44.3783 137.798C43.5492 137.769 42.8556 137.034 42.8882 136.101C42.9208 135.167 43.6639 134.483 44.4931 134.512C45.3223 134.541 46.0158 135.275 45.9832 136.209Z" fill="#F5F0F7" stroke="#F5F0F7" stroke-width="1.28188"/>
<path d="M61.2672 136.743C61.2346 137.676 60.4915 138.36 59.6623 138.331C58.8331 138.302 58.1395 137.568 58.1721 136.634C58.2047 135.701 58.9478 135.017 59.777 135.046C60.6062 135.075 61.2997 135.809 61.2672 136.743Z" fill="#F5F0F7" stroke="#F5F0F7" stroke-width="1.28188"/>
<path d="M76.5395 137.276C76.5069 138.209 75.7638 138.894 74.9346 138.865C74.1054 138.836 73.4119 138.101 73.4445 137.168C73.4771 136.234 74.2202 135.55 75.0493 135.579C75.8785 135.608 76.5721 136.342 76.5395 137.276Z" fill="#F5F0F7" stroke="#F5F0F7" stroke-width="1.28188"/>
<path d="M91.8235 137.81C91.7909 138.743 91.0478 139.427 90.2187 139.398C89.3895 139.37 88.6959 138.635 88.7285 137.702C88.7611 136.768 89.5042 136.084 90.3334 136.113C91.1626 136.142 91.8561 136.876 91.8235 137.81Z" fill="#F5F0F7" stroke="#F5F0F7" stroke-width="1.28188"/>
<path d="M14.8697 151.08C14.8371 152.013 14.094 152.698 13.2648 152.669C12.4356 152.64 11.7421 151.905 11.7747 150.972C11.8073 150.038 12.5504 149.354 13.3796 149.383C14.2087 149.412 14.9023 150.147 14.8697 151.08Z" fill="#F5F0F7" stroke="#F5F0F7" stroke-width="1.28188"/>
<path d="M30.1541 151.614C30.1215 152.547 29.3784 153.231 28.5492 153.202C27.7201 153.173 27.0265 152.439 27.0591 151.506C27.0917 150.572 27.8348 149.888 28.664 149.917C29.4932 149.946 30.1867 150.68 30.1541 151.614Z" fill="#F5F0F7" stroke="#F5F0F7" stroke-width="1.28188"/>
<path d="M45.4266 152.147C45.394 153.08 44.6509 153.765 43.8217 153.736C42.9925 153.707 42.299 152.972 42.3316 152.039C42.3642 151.106 43.1073 150.421 43.9364 150.45C44.7656 150.479 45.4592 151.214 45.4266 152.147Z" fill="#F5F0F7" stroke="#F5F0F7" stroke-width="1.28188"/>
<path d="M60.7108 152.681C60.6782 153.614 59.9351 154.299 59.1059 154.27C58.2767 154.241 57.5831 153.506 57.6157 152.573C57.6483 151.639 58.3914 150.955 59.2206 150.984C60.0498 151.013 60.7433 151.747 60.7108 152.681Z" fill="#F5F0F7" stroke="#F5F0F7" stroke-width="1.28188"/>
<path d="M75.9828 153.214C75.9502 154.148 75.2071 154.832 74.378 154.803C73.5488 154.774 72.8552 154.039 72.8878 153.106C72.9204 152.173 73.6635 151.488 74.4927 151.517C75.3219 151.546 76.0154 152.281 75.9828 153.214Z" fill="#F5F0F7" stroke="#F5F0F7" stroke-width="1.28188"/>
<path d="M91.2669 153.748C91.2343 154.681 90.4912 155.366 89.662 155.337C88.8328 155.308 88.1393 154.573 88.1719 153.64C88.2045 152.706 88.9476 152.022 89.7768 152.051C90.6059 152.08 91.2995 152.815 91.2669 153.748Z" fill="#F5F0F7" stroke="#F5F0F7" stroke-width="1.28188"/>
<path d="M14.3129 167.03C14.2803 167.964 13.5372 168.648 12.708 168.619C11.8789 168.59 11.1853 167.856 11.2179 166.922C11.2505 165.989 11.9936 165.304 12.8228 165.333C13.652 165.362 14.3455 166.097 14.3129 167.03Z" fill="#F5F0F7" stroke="#F5F0F7" stroke-width="1.28188"/>
<path d="M29.5972 167.564C29.5646 168.497 28.8215 169.182 27.9924 169.153C27.1632 169.124 26.4696 168.389 26.5022 167.456C26.5348 166.523 27.2779 165.838 28.1071 165.867C28.9363 165.896 29.6298 166.631 29.5972 167.564Z" fill="#F5F0F7" stroke="#F5F0F7" stroke-width="1.28188"/>
<path d="M44.8694 168.097C44.8368 169.031 44.0937 169.715 43.2646 169.686C42.4354 169.657 41.7418 168.923 41.7744 167.989C41.807 167.056 42.5501 166.372 43.3793 166.401C44.2085 166.43 44.902 167.164 44.8694 168.097Z" fill="#F5F0F7" stroke="#F5F0F7" stroke-width="1.28188"/>
<path d="M60.1537 168.631C60.1212 169.565 59.3781 170.249 58.5489 170.22C57.7197 170.191 57.0261 169.456 57.0587 168.523C57.0913 167.59 57.8344 166.905 58.6636 166.934C59.4928 166.963 60.1863 167.698 60.1537 168.631Z" fill="#F5F0F7" stroke="#F5F0F7" stroke-width="1.28188"/>
<path d="M75.4261 169.165C75.3935 170.098 74.6504 170.782 73.8212 170.753C72.992 170.725 72.2985 169.99 72.3311 169.057C72.3637 168.123 73.1068 167.439 73.9359 167.468C74.7651 167.497 75.4587 168.231 75.4261 169.165Z" fill="#F5F0F7" stroke="#F5F0F7" stroke-width="1.28188"/>
<path d="M90.71 169.698C90.6774 170.631 89.9343 171.316 89.1051 171.287C88.276 171.258 87.5824 170.523 87.615 169.59C87.6476 168.657 88.3907 167.972 89.2199 168.001C90.0491 168.03 90.7426 168.765 90.71 169.698Z" fill="#F5F0F7" stroke="#F5F0F7" stroke-width="1.28188"/>
<path d="M13.7563 182.969C13.7237 183.902 12.9806 184.586 12.1514 184.557C11.3222 184.528 10.6287 183.794 10.6613 182.861C10.6939 181.927 11.437 181.243 12.2662 181.272C13.0953 181.301 13.7889 182.035 13.7563 182.969Z" fill="#F5F0F7" stroke="#F5F0F7" stroke-width="1.28188"/>
<path d="M29.0406 183.503C29.008 184.436 28.2649 185.12 27.4357 185.091C26.6065 185.062 25.913 184.328 25.9456 183.394C25.9782 182.461 26.7213 181.777 27.5505 181.806C28.3796 181.835 29.0732 182.569 29.0406 183.503Z" fill="#F5F0F7" stroke="#F5F0F7" stroke-width="1.28188"/>
<path d="M44.3129 184.036C44.2803 184.969 43.5372 185.654 42.708 185.625C41.8789 185.596 41.1853 184.861 41.2179 183.928C41.2505 182.994 41.9936 182.31 42.8228 182.339C43.652 182.368 44.3455 183.102 44.3129 184.036Z" fill="#F5F0F7" stroke="#F5F0F7" stroke-width="1.28188"/>
<path d="M59.5971 184.57C59.5645 185.503 58.8214 186.187 57.9922 186.159C57.1631 186.13 56.4695 185.395 56.5021 184.462C56.5347 183.528 57.2778 182.844 58.107 182.873C58.9361 182.902 59.6297 183.636 59.5971 184.57Z" fill="#F5F0F7" stroke="#F5F0F7" stroke-width="1.28188"/>
<path d="M74.8696 185.103C74.837 186.036 74.0939 186.72 73.2647 186.691C72.4355 186.663 71.742 185.928 71.7746 184.995C71.8072 184.061 72.5503 183.377 73.3794 183.406C74.2086 183.435 74.9021 184.169 74.8696 185.103Z" fill="#F5F0F7" stroke="#F5F0F7" stroke-width="1.28188"/>
<path d="M90.1533 185.637C90.1207 186.57 89.3776 187.254 88.5484 187.225C87.7192 187.196 87.0257 186.462 87.0582 185.528C87.0908 184.595 87.8339 183.911 88.6631 183.94C89.4923 183.969 90.1858 184.703 90.1533 185.637Z" fill="#F5F0F7" stroke="#F5F0F7" stroke-width="1.28188"/>
<path d="M240.718 443.682C240.686 444.616 239.943 445.3 239.113 445.271C238.284 445.242 237.591 444.508 237.623 443.574C237.656 442.641 238.399 441.956 239.228 441.985C240.057 442.014 240.751 442.749 240.718 443.682Z" fill="#F5F0F7" stroke="#F5F0F7" stroke-width="1.28188"/>
<path d="M256.003 444.216C255.97 445.149 255.227 445.834 254.398 445.805C253.569 445.776 252.875 445.041 252.908 444.108C252.94 443.174 253.683 442.49 254.513 442.519C255.342 442.548 256.035 443.283 256.003 444.216Z" fill="#F5F0F7" stroke="#F5F0F7" stroke-width="1.28188"/>
<path d="M271.275 444.749C271.242 445.682 270.499 446.367 269.67 446.338C268.841 446.309 268.147 445.574 268.18 444.641C268.212 443.708 268.955 443.023 269.785 443.052C270.614 443.081 271.307 443.816 271.275 444.749Z" fill="#F5F0F7" stroke="#F5F0F7" stroke-width="1.28188"/>
<path d="M286.559 445.283C286.526 446.216 285.783 446.901 284.954 446.872C284.125 446.843 283.431 446.108 283.464 445.175C283.496 444.241 284.24 443.557 285.069 443.586C285.898 443.615 286.592 444.349 286.559 445.283Z" fill="#F5F0F7" stroke="#F5F0F7" stroke-width="1.28188"/>
<path d="M301.832 445.816C301.8 446.75 301.056 447.434 300.227 447.405C299.398 447.376 298.704 446.642 298.737 445.708C298.77 444.775 299.513 444.09 300.342 444.119C301.171 444.148 301.865 444.883 301.832 445.816Z" fill="#F5F0F7" stroke="#F5F0F7" stroke-width="1.28188"/>
<path d="M240.162 459.632C240.129 460.566 239.386 461.25 238.557 461.221C237.728 461.192 237.034 460.458 237.067 459.524C237.1 458.591 237.843 457.907 238.672 457.935C239.501 457.964 240.195 458.699 240.162 459.632Z" fill="#F5F0F7" stroke="#F5F0F7" stroke-width="1.28188"/>
<path d="M255.446 460.166C255.413 461.099 254.67 461.784 253.841 461.755C253.012 461.726 252.318 460.991 252.351 460.058C252.383 459.125 253.127 458.44 253.956 458.469C254.785 458.498 255.478 459.233 255.446 460.166Z" fill="#F5F0F7" stroke="#F5F0F7" stroke-width="1.28188"/>
<path d="M270.718 460.7C270.686 461.633 269.943 462.317 269.113 462.288C268.284 462.259 267.591 461.525 267.623 460.591C267.656 459.658 268.399 458.974 269.228 459.003C270.057 459.032 270.751 459.766 270.718 460.7Z" fill="#F5F0F7" stroke="#F5F0F7" stroke-width="1.28188"/>
<path d="M286.002 461.233C285.97 462.167 285.227 462.851 284.397 462.822C283.568 462.793 282.875 462.059 282.907 461.125C282.94 460.192 283.683 459.507 284.512 459.536C285.341 459.565 286.035 460.3 286.002 461.233Z" fill="#F5F0F7" stroke="#F5F0F7" stroke-width="1.28188"/>
<path d="M301.274 461.767C301.242 462.7 300.499 463.384 299.67 463.356C298.84 463.327 298.147 462.592 298.179 461.659C298.212 460.725 298.955 460.041 299.784 460.07C300.614 460.099 301.307 460.833 301.274 461.767Z" fill="#F5F0F7" stroke="#F5F0F7" stroke-width="1.28188"/>
<path d="M641.841 58.3577C641.808 59.2911 641.065 59.9755 640.236 59.9466C639.407 59.9176 638.713 59.183 638.746 58.2497C638.778 57.3163 639.522 56.6319 640.351 56.6608C641.18 56.6898 641.873 57.4243 641.841 58.3577Z" fill="#F5F0F7" stroke="#F5F0F7" stroke-width="1.28188"/>
<path d="M657.113 58.8912C657.081 59.8246 656.338 60.509 655.508 60.48C654.679 60.4511 653.986 59.7165 654.018 58.7831C654.051 57.8497 654.794 57.1653 655.623 57.1943C656.452 57.2232 657.146 57.9578 657.113 58.8912Z" fill="#F5F0F7" stroke="#F5F0F7" stroke-width="1.28188"/>
<path d="M672.397 59.4249C672.365 60.3583 671.622 61.0427 670.793 61.0137C669.963 60.9848 669.27 60.2502 669.303 59.3168C669.335 58.3834 670.078 57.699 670.907 57.7279C671.737 57.7569 672.43 58.4915 672.397 59.4249Z" fill="#F5F0F7" stroke="#F5F0F7" stroke-width="1.28188"/>
<path d="M641.284 74.3082C641.251 75.2416 640.508 75.926 639.679 75.897C638.85 75.8681 638.156 75.1335 638.189 74.2001C638.221 73.2667 638.964 72.5823 639.794 72.6112C640.623 72.6402 641.316 73.3748 641.284 74.3082Z" fill="#F5F0F7" stroke="#F5F0F7" stroke-width="1.28188"/>
<path d="M656.556 74.8416C656.524 75.775 655.781 76.4594 654.951 76.4305C654.122 76.4015 653.429 75.6669 653.461 74.7335C653.494 73.8002 654.237 73.1157 655.066 73.1447C655.895 73.1736 656.589 73.9082 656.556 74.8416Z" fill="#F5F0F7" stroke="#F5F0F7" stroke-width="1.28188"/>
<path d="M671.841 75.3753C671.808 76.3087 671.065 76.9931 670.236 76.9642C669.407 76.9352 668.713 76.2006 668.746 75.2672C668.778 74.3339 669.521 73.6494 670.35 73.6784C671.18 73.7073 671.873 74.4419 671.841 75.3753Z" fill="#F5F0F7" stroke="#F5F0F7" stroke-width="1.28188"/>
<path d="M242.881 14.2134C242.849 15.1468 242.105 15.8313 241.276 15.8023C240.447 15.7733 239.754 15.0387 239.786 14.1054C239.819 13.172 240.562 12.4876 241.391 12.5165C242.22 12.5455 242.914 13.2801 242.881 14.2134Z" fill="#F5F0F7" stroke="#F5F0F7" stroke-width="1.28188"/>
<path d="M258.154 14.7469C258.121 15.6803 257.378 16.3647 256.549 16.3357C255.72 16.3068 255.026 15.5722 255.059 14.6388C255.091 13.7054 255.835 13.021 256.664 13.05C257.493 13.0789 258.186 13.8135 258.154 14.7469Z" fill="#F5F0F7" stroke="#F5F0F7" stroke-width="1.28188"/>
<path d="M273.437 15.2806C273.405 16.214 272.662 16.8984 271.832 16.8694C271.003 16.8405 270.31 16.1059 270.342 15.1725C270.375 14.2391 271.118 13.5547 271.947 13.5837C272.776 13.6126 273.47 14.3472 273.437 15.2806Z" fill="#F5F0F7" stroke="#F5F0F7" stroke-width="1.28188"/>
<path d="M242.324 30.1639C242.291 31.0973 241.548 31.7817 240.719 31.7527C239.89 31.7238 239.196 30.9892 239.229 30.0558C239.262 29.1224 240.005 28.438 240.834 28.467C241.663 28.4959 242.357 29.2305 242.324 30.1639Z" fill="#F5F0F7" stroke="#F5F0F7" stroke-width="1.28188"/>
<path d="M257.596 30.6973C257.564 31.6307 256.821 32.3151 255.992 32.2862C255.162 32.2572 254.469 31.5226 254.501 30.5893C254.534 29.6559 255.277 28.9715 256.106 29.0004C256.936 29.0294 257.629 29.764 257.596 30.6973Z" fill="#F5F0F7" stroke="#F5F0F7" stroke-width="1.28188"/>
<path d="M272.88 31.231C272.848 32.1644 272.105 32.8488 271.276 32.8199C270.446 32.7909 269.753 32.0563 269.785 31.1229C269.818 30.1896 270.561 29.5051 271.39 29.5341C272.219 29.5631 272.913 30.2976 272.88 31.231Z" fill="#F5F0F7" stroke="#F5F0F7" stroke-width="1.28188"/>
<path d="M771.634 278.682C771.602 279.616 770.859 280.3 770.029 280.271C769.2 280.242 768.507 279.508 768.539 278.574C768.572 277.641 769.315 276.957 770.144 276.986C770.973 277.014 771.667 277.749 771.634 278.682Z" fill="#F5F0F7" stroke="#F5F0F7" stroke-width="1.28188"/>
<path d="M771.078 294.633C771.045 295.566 770.302 296.251 769.473 296.222C768.644 296.193 767.95 295.458 767.983 294.525C768.015 293.591 768.758 292.907 769.588 292.936C770.417 292.965 771.11 293.7 771.078 294.633Z" fill="#F5F0F7" stroke="#F5F0F7" stroke-width="1.28188"/>
<path d="M770.521 310.571C770.489 311.504 769.746 312.189 768.916 312.16C768.087 312.131 767.394 311.396 767.426 310.463C767.459 309.53 768.202 308.845 769.031 308.874C769.86 308.903 770.554 309.638 770.521 310.571Z" fill="#F5F0F7" stroke="#F5F0F7" stroke-width="1.28188"/>
<path d="M769.964 326.521C769.931 327.455 769.188 328.139 768.359 328.11C767.53 328.081 766.836 327.347 766.869 326.413C766.902 325.48 767.645 324.795 768.474 324.824C769.303 324.853 769.997 325.588 769.964 326.521Z" fill="#F5F0F7" stroke="#F5F0F7" stroke-width="1.28188"/>
<path d="M769.408 342.46C769.375 343.393 768.632 344.078 767.803 344.049C766.973 344.02 766.28 343.285 766.313 342.352C766.345 341.418 767.088 340.734 767.917 340.763C768.747 340.792 769.44 341.526 769.408 342.46Z" fill="#F5F0F7" stroke="#F5F0F7" stroke-width="1.28188"/>
<path d="M768.85 358.41C768.818 359.343 768.075 360.028 767.245 359.999C766.416 359.97 765.723 359.235 765.755 358.302C765.788 357.369 766.531 356.684 767.36 356.713C768.189 356.742 768.883 357.477 768.85 358.41Z" fill="#F5F0F7" stroke="#F5F0F7" stroke-width="1.28188"/>
<path d="M768.294 374.348C768.261 375.282 767.518 375.966 766.689 375.937C765.86 375.908 765.166 375.174 765.199 374.24C765.231 373.307 765.974 372.623 766.804 372.652C767.633 372.68 768.326 373.415 768.294 374.348Z" fill="#F5F0F7" stroke="#F5F0F7" stroke-width="1.28188"/>
<path d="M756.35 278.149C756.318 279.082 755.574 279.767 754.745 279.738C753.916 279.709 753.223 278.974 753.255 278.041C753.288 277.107 754.031 276.423 754.86 276.452C755.689 276.481 756.383 277.215 756.35 278.149Z" fill="#F5F0F7" stroke="#F5F0F7" stroke-width="1.28188"/>
<path d="M755.794 294.099C755.761 295.033 755.018 295.717 754.189 295.688C753.359 295.659 752.666 294.924 752.699 293.991C752.731 293.058 753.474 292.373 754.303 292.402C755.133 292.431 755.826 293.166 755.794 294.099Z" fill="#F5F0F7" stroke="#F5F0F7" stroke-width="1.28188"/>
<path d="M755.237 310.037C755.204 310.971 754.461 311.655 753.632 311.626C752.803 311.597 752.109 310.862 752.142 309.929C752.174 308.996 752.918 308.311 753.747 308.34C754.576 308.369 755.269 309.104 755.237 310.037Z" fill="#F5F0F7" stroke="#F5F0F7" stroke-width="1.28188"/>
<path d="M754.68 325.988C754.647 326.921 753.904 327.605 753.075 327.576C752.246 327.547 751.552 326.813 751.585 325.88C751.617 324.946 752.36 324.262 753.19 324.291C754.019 324.32 754.712 325.054 754.68 325.988Z" fill="#F5F0F7" stroke="#F5F0F7" stroke-width="1.28188"/>
<path d="M754.123 341.926C754.091 342.859 753.348 343.544 752.518 343.515C751.689 343.486 750.996 342.751 751.028 341.818C751.061 340.885 751.804 340.2 752.633 340.229C753.462 340.258 754.156 340.993 754.123 341.926Z" fill="#F5F0F7" stroke="#F5F0F7" stroke-width="1.28188"/>
<path d="M753.566 357.876C753.534 358.81 752.791 359.494 751.962 359.465C751.132 359.436 750.439 358.702 750.471 357.768C750.504 356.835 751.247 356.15 752.076 356.179C752.906 356.208 753.599 356.943 753.566 357.876Z" fill="#F5F0F7" stroke="#F5F0F7" stroke-width="1.28188"/>
<path d="M753.01 373.815C752.977 374.748 752.234 375.433 751.405 375.404C750.576 375.375 749.882 374.64 749.915 373.707C749.947 372.773 750.69 372.089 751.519 372.118C752.349 372.147 753.042 372.881 753.01 373.815Z" fill="#F5F0F7" stroke="#F5F0F7" stroke-width="1.28188"/>
<path d="M741.078 277.615C741.045 278.549 740.302 279.233 739.473 279.204C738.644 279.175 737.95 278.441 737.983 277.507C738.016 276.574 738.759 275.889 739.588 275.918C740.417 275.947 741.111 276.682 741.078 277.615Z" fill="#F5F0F7" stroke="#F5F0F7" stroke-width="1.28188"/>
<path d="M740.521 293.566C740.488 294.499 739.745 295.184 738.916 295.155C738.087 295.126 737.393 294.391 737.426 293.458C737.459 292.524 738.202 291.84 739.031 291.869C739.86 291.898 740.554 292.632 740.521 293.566Z" fill="#F5F0F7" stroke="#F5F0F7" stroke-width="1.28188"/>
<path d="M739.964 309.504C739.932 310.437 739.189 311.122 738.36 311.093C737.53 311.064 736.837 310.329 736.869 309.396C736.902 308.463 737.645 307.778 738.474 307.807C739.303 307.836 739.997 308.571 739.964 309.504Z" fill="#F5F0F7" stroke="#F5F0F7" stroke-width="1.28188"/>
<path d="M739.407 325.454C739.374 326.388 738.631 327.072 737.802 327.043C736.973 327.014 736.279 326.28 736.312 325.346C736.345 324.413 737.088 323.729 737.917 323.757C738.746 323.786 739.44 324.521 739.407 325.454Z" fill="#F5F0F7" stroke="#F5F0F7" stroke-width="1.28188"/>
<path d="M738.851 341.393C738.818 342.326 738.075 343.01 737.246 342.982C736.417 342.953 735.723 342.218 735.756 341.285C735.788 340.351 736.532 339.667 737.361 339.696C738.19 339.725 738.883 340.459 738.851 341.393Z" fill="#F5F0F7" stroke="#F5F0F7" stroke-width="1.28188"/>
<path d="M738.294 357.343C738.261 358.276 737.518 358.961 736.689 358.932C735.859 358.903 735.166 358.168 735.199 357.235C735.231 356.302 735.974 355.617 736.803 355.646C737.633 355.675 738.326 356.41 738.294 357.343Z" fill="#F5F0F7" stroke="#F5F0F7" stroke-width="1.28188"/>
<path d="M737.737 373.281C737.705 374.215 736.961 374.899 736.132 374.87C735.303 374.841 734.61 374.107 734.642 373.173C734.675 372.24 735.418 371.555 736.247 371.584C737.076 371.613 737.77 372.348 737.737 373.281Z" fill="#F5F0F7" stroke="#F5F0F7" stroke-width="1.28188"/>
<path d="M725.794 277.082C725.761 278.015 725.018 278.699 724.189 278.67C723.36 278.642 722.666 277.907 722.699 276.974C722.731 276.04 723.474 275.356 724.304 275.385C725.133 275.414 725.826 276.148 725.794 277.082Z" fill="#F5F0F7" stroke="#F5F0F7" stroke-width="1.28188"/>
<path d="M725.236 293.032C725.204 293.965 724.461 294.65 723.632 294.621C722.802 294.592 722.109 293.857 722.141 292.924C722.174 291.991 722.917 291.306 723.746 291.335C724.575 291.364 725.269 292.099 725.236 293.032Z" fill="#F5F0F7" stroke="#F5F0F7" stroke-width="1.28188"/>
<path d="M724.68 308.97C724.647 309.904 723.904 310.588 723.075 310.559C722.246 310.53 721.552 309.796 721.585 308.862C721.618 307.929 722.361 307.244 723.19 307.273C724.019 307.302 724.713 308.037 724.68 308.97Z" fill="#F5F0F7" stroke="#F5F0F7" stroke-width="1.28188"/>
<path d="M724.123 324.921C724.09 325.854 723.347 326.539 722.518 326.51C721.689 326.481 720.995 325.746 721.028 324.813C721.06 323.879 721.804 323.195 722.633 323.224C723.462 323.253 724.155 323.987 724.123 324.921Z" fill="#F5F0F7" stroke="#F5F0F7" stroke-width="1.28188"/>
<path d="M723.566 340.859C723.534 341.792 722.791 342.477 721.961 342.448C721.132 342.419 720.439 341.684 720.471 340.751C720.504 339.818 721.247 339.133 722.076 339.162C722.905 339.191 723.599 339.926 723.566 340.859Z" fill="#F5F0F7" stroke="#F5F0F7" stroke-width="1.28188"/>
<path d="M723.009 356.809C722.977 357.743 722.234 358.427 721.404 358.398C720.575 358.369 719.882 357.635 719.914 356.701C719.947 355.768 720.69 355.084 721.519 355.112C722.348 355.141 723.042 355.876 723.009 356.809Z" fill="#F5F0F7" stroke="#F5F0F7" stroke-width="1.28188"/>
<path d="M722.452 372.748C722.42 373.681 721.677 374.365 720.848 374.336C720.018 374.308 719.325 373.573 719.357 372.64C719.39 371.706 720.133 371.022 720.962 371.051C721.791 371.08 722.485 371.814 722.452 372.748Z" fill="#F5F0F7" stroke="#F5F0F7" stroke-width="1.28188"/>
<path d="M590.299 367.539L193.585 353.685C186.449 353.436 180.819 347.133 181.084 339.546L189.983 84.715C190.248 77.1275 196.304 71.2329 203.44 71.4821L600.165 85.3361C607.301 85.5853 612.931 91.888 612.666 99.4754L603.768 354.305C603.491 361.893 597.435 367.788 590.299 367.539Z" fill="#04D361" stroke="#04D361" stroke-width="1.28188"/>
<path d="M590.124 356.087L194.554 342.273C188.419 342.059 183.619 336.685 183.842 330.283L192.413 84.856C192.636 78.454 197.8 73.4286 203.935 73.6428L599.505 87.4565C605.64 87.6707 610.44 93.044 610.217 99.4461L601.646 344.873C601.422 351.288 596.259 356.301 590.124 356.087Z" fill="white"/>
<path d="M468.609 105.874L462.563 279.032C462.38 284.256 458.182 288.342 453.176 288.167L203.346 279.443C201.099 279.365 199.069 278.442 197.535 276.966C195.663 275.161 194.519 272.555 194.62 269.676L200.666 96.5171C200.849 91.2935 205.059 87.2078 210.053 87.3822L459.883 96.1064C462.13 96.1849 464.172 97.1076 465.694 98.5838C467.577 100.389 468.71 102.995 468.609 105.874Z" fill="#F0F0F5"/>
<path d="M589.938 174.757L486.523 171.145C481.518 170.97 477.615 166.601 477.797 161.378L479.722 106.262C479.904 101.038 484.103 96.9523 489.108 97.127L592.523 100.738C597.529 100.913 601.432 105.282 601.249 110.506L599.325 165.622C599.142 170.845 594.932 174.931 589.938 174.757Z" fill="#F0F0F5"/>
<path d="M586.895 261.889L483.48 258.278C478.475 258.103 474.571 253.734 474.754 248.511L476.679 193.395C476.861 188.171 481.059 184.085 486.065 184.26L589.48 187.871C594.485 188.046 598.389 192.415 598.206 197.639L596.282 252.754C596.099 257.978 591.889 262.064 586.895 261.889Z" fill="#F0F0F5"/>
<path d="M584.012 344.448L480.597 340.837C475.592 340.662 471.689 336.293 471.871 331.069L473.612 281.202C473.795 275.978 477.993 271.892 482.999 272.067L586.414 275.678C591.419 275.853 595.322 280.222 595.14 285.446L593.399 335.313C593.216 340.537 589.006 344.623 584.012 344.448Z" fill="#F0F0F5"/>
<path d="M330.266 302.484L196.934 297.828C195.118 297.765 193.705 296.183 193.771 294.288C193.838 292.393 195.358 290.914 197.174 290.977L330.505 295.633C332.321 295.696 333.734 297.278 333.668 299.173C333.602 301.056 332.082 302.548 330.266 302.484Z" fill="#F0F0F5"/>
<path d="M336.839 334.897L195.944 329.976C194.025 329.909 192.527 328.37 192.592 326.531L193.056 313.223C193.12 311.384 194.722 309.953 196.641 310.02L337.536 314.94C339.455 315.007 340.953 316.547 340.889 318.386L340.424 331.694C340.36 333.533 338.758 334.964 336.839 334.897Z" fill="#F0F0F5"/>
<path d="M428.978 305.931L458.3 306.955C460.116 307.019 461.636 305.539 461.703 303.644C461.769 301.749 460.356 300.167 458.54 300.104L429.217 299.08C427.401 299.017 425.881 300.496 425.815 302.391C425.749 304.274 427.162 305.868 428.978 305.931Z" fill="#F0F0F5"/>
<path d="M379.237 304.194L408.56 305.218C410.376 305.282 411.896 303.802 411.962 301.907C412.028 300.012 410.615 298.43 408.799 298.367L379.477 297.343C377.661 297.279 376.14 298.759 376.074 300.654C375.997 302.537 377.421 304.131 379.237 304.194Z" fill="#F0F0F5"/>
<path d="M399.016 337.214L457.173 339.245C458.989 339.308 460.509 337.829 460.575 335.934L461.054 322.219C461.12 320.324 459.707 318.742 457.891 318.678L399.735 316.647C397.919 316.584 396.398 318.063 396.332 319.958L395.853 333.674C395.787 335.569 397.2 337.151 399.016 337.214Z" fill="#F0F0F5"/>
<g opacity="0.24">
<path d="M538.46 155.639C548.586 155.993 557.093 147.713 557.462 137.146C557.831 126.579 549.922 117.726 539.797 117.373C529.671 117.019 521.164 125.299 520.795 135.866C520.425 146.433 528.335 155.285 538.46 155.639Z" fill="#F0F0F5" stroke="#6842C2" stroke-width="2.56376" stroke-miterlimit="10"/>
<path d="M546.707 134.882L536.462 128.211C535.334 127.479 533.872 128.291 533.823 129.676L533.383 142.286C533.335 143.671 534.736 144.583 535.913 143.931L546.598 137.992C547.775 137.339 547.835 135.614 546.707 134.882Z" fill="#F0F0F5" stroke="#6842C2" stroke-width="2.56376" stroke-miterlimit="10"/>
</g>
<g opacity="0.24">
<path d="M535.458 241.614C545.583 241.968 554.091 233.688 554.46 223.121C554.829 212.554 546.92 203.701 536.794 203.348C526.669 202.994 518.161 211.274 517.792 221.841C517.423 232.408 525.332 241.261 535.458 241.614Z" fill="#F0F0F5" stroke="#6842C2" stroke-width="2.56376" stroke-miterlimit="10"/>
<path d="M543.704 220.856L533.46 214.186C532.331 213.454 530.87 214.266 530.821 215.651L530.381 228.261C530.333 229.645 531.734 230.558 532.911 229.906L543.596 223.966C544.772 223.314 544.833 221.589 543.704 220.856Z" fill="#F0F0F5" stroke="#6842C2" stroke-width="2.56376" stroke-miterlimit="10"/>
</g>
<g opacity="0.24">
<path d="M532.485 326.76C542.61 327.114 551.118 318.834 551.487 308.267C551.856 297.7 543.947 288.848 533.821 288.494C523.695 288.14 515.188 296.42 514.819 306.987C514.45 317.554 522.359 326.407 532.485 326.76Z" fill="#F0F0F5" stroke="#6842C2" stroke-width="2.56376" stroke-miterlimit="10"/>
<path d="M540.731 306.003L530.486 299.332C529.358 298.6 527.896 299.412 527.848 300.797L527.407 313.407C527.359 314.792 528.761 315.704 529.937 315.052L540.622 309.113C541.799 308.46 541.859 306.735 540.731 306.003Z" fill="#F0F0F5" stroke="#6842C2" stroke-width="2.56376" stroke-miterlimit="10"/>
</g>
<path d="M465.694 98.5838L197.535 276.966C195.663 275.161 194.519 272.555 194.62 269.676L200.666 96.5171C200.849 91.2935 205.059 87.2078 210.053 87.3822L459.883 96.1064C462.13 96.1849 464.172 97.1076 465.694 98.5838Z" fill="#F5F5FA"/>
<mask id="mask0_448_2389" style="mask-type:alpha" maskUnits="userSpaceOnUse" x="195" y="48" width="276" height="241">
<path d="M470.227 68.9104L462.943 277.476C462.724 283.768 458.502 288.719 453.505 288.545L204.121 279.836C201.878 279.758 199.857 278.661 198.336 276.894C196.481 274.735 195.357 271.604 195.478 268.136L202.761 59.5703C202.981 53.2785 207.214 48.3281 212.199 48.5022L461.584 57.2109C463.826 57.2892 465.859 58.3857 467.368 60.1525C469.235 62.3126 470.348 65.4426 470.227 68.9104Z" fill="#A3D1DE"/>
</mask>
<g mask="url(#mask0_448_2389)">
<path d="M444.411 204.074C444.411 204.074 459.775 192.29 460.294 188.781C461.271 182.174 463.734 177.054 477.554 173.134C477.554 173.134 478.539 175.285 476.561 177.514C474.403 179.932 472.731 180.75 472.731 180.75C472.731 180.75 476.3 182.322 481.844 178.112C487.386 173.915 489.789 170.18 492.027 171.195C492.027 171.195 494.792 168.761 496.047 169.206C496.047 169.206 496.968 169.53 496.757 170.569C498.876 170.303 498.224 176.629 494.296 181.649C488.647 188.871 481.696 195.014 476.117 196.923C471.929 198.358 454.219 215.899 454.219 215.899L444.411 204.074Z" fill="#FFCAD0"/>
<path d="M396.098 265.245C389.499 267.313 355.359 208.007 355.359 208.007C341.965 190.73 356.444 135.87 368.421 155.7C368.421 155.7 399.159 218.975 402.535 224.104C406.729 230.477 420.479 257.594 396.098 265.245Z" fill="#04D361"/>
<path d="M353.332 321.44L257.973 318.11C257.973 318.11 250.768 314.489 257.648 300.037C260.226 294.641 259.683 280.489 259.963 261.099C260.498 222.756 251.823 158.781 265.523 151.961C273.731 147.857 291.044 142.684 303.603 139.17C304.355 138.977 305.085 138.772 305.803 138.578C313.134 136.571 318.366 135.258 318.366 135.258C318.366 135.258 324.341 136.379 336.409 140.571C337.065 140.801 337.744 141.043 338.447 141.287C341.589 142.406 345.087 143.708 348.973 145.242C370.034 153.555 367.73 150.775 369.588 178.668C371.071 200.942 353.332 321.44 353.332 321.44Z" fill="#04D361"/>
<path d="M338.447 141.275C338.003 145.978 335.832 150.074 332.641 153.016C329.401 156.028 325.086 157.775 320.453 157.613C310.896 157.28 303.445 149.028 303.591 139.169C304.344 138.977 305.074 138.771 305.792 138.577C313.123 136.571 318.355 135.258 318.355 135.258C318.355 135.258 324.329 136.379 336.397 140.57C337.054 140.788 337.745 141.031 338.447 141.275Z" fill="#F5F5FA"/>
<path d="M337.742 101.416L335.183 131.637L334.45 140.259C334.148 143.922 332.485 147.135 330.005 149.408C327.548 151.682 324.285 153.004 320.77 152.881C313.332 152.621 307.56 146.01 308.029 138.266L308.94 122.863L310.462 97.2771L337.742 101.416Z" fill="#FBD5D9"/>
<path d="M337.53 107.466L335.033 135.925C322.163 136.011 312.982 130.241 308.941 122.827L310.25 103.351L337.53 107.466Z" fill="#FFA4AD"/>
<path d="M302.854 70.5206C302.854 70.5206 290.594 68.487 291.44 84.6445C292.098 97.1709 307.778 114.406 307.778 114.406C307.778 114.406 319.359 77.1297 302.854 70.5206Z" fill="#8F4A3F"/>
<path d="M352.747 83.8784C351.839 85.8414 350.487 87.5335 349.362 89.3673C348.249 91.2015 347.336 93.3103 347.494 95.4808C347.407 91.9627 345.286 88.933 343.466 85.9869C341.646 83.0286 340.023 79.469 341.06 76.1239C342.046 72.9109 347.847 67.9929 351.196 70.214C354.921 72.6793 354.361 80.3954 352.747 83.8784Z" fill="#0E1235"/>
<path d="M348.546 84.3764C348.546 84.3764 349.156 94.274 347.448 105.149C345.47 117.717 345.5 132.557 327.643 132.93C308.586 133.323 303.064 110.884 303.064 110.884C303.064 110.884 293.029 108.564 292.591 101.421C292.153 94.2659 299.221 94.1114 301.456 96.1963C301.456 96.1963 304.991 69.7195 328.517 70.5411C349.273 71.2416 348.546 84.3764 348.546 84.3764Z" fill="#FBD5D9"/>
<path d="M325.487 103.871C325.449 104.952 324.58 105.809 323.533 105.773C322.485 105.736 321.678 104.832 321.716 103.739C321.754 102.658 322.623 101.801 323.67 101.837C324.718 101.874 325.525 102.79 325.487 103.871Z" fill="#9A5449"/>
<path d="M342.529 104.466C342.491 105.547 341.622 106.404 340.575 106.368C339.527 106.331 338.72 105.427 338.758 104.334C338.796 103.253 339.665 102.396 340.712 102.433C341.76 102.469 342.567 103.385 342.529 104.466Z" fill="#9A5449"/>
<path d="M316.985 96.7265C316.985 96.7265 319.946 92.0256 325.834 93.9583" stroke="#561E15" stroke-width="1.31701" stroke-miterlimit="10" stroke-linecap="round" stroke-linejoin="round"/>
<path d="M336.092 94.2435C336.092 94.2435 340.53 90.2996 344.599 94.9298" stroke="#561E15" stroke-width="1.31701" stroke-miterlimit="10" stroke-linecap="round" stroke-linejoin="round"/>
<path d="M332.15 98.9832C332.15 98.9832 333.998 104.484 335.614 107.922C337.231 111.36 332.056 112.687 332.056 112.687" stroke="#D66D78" stroke-width="0.987819" stroke-miterlimit="10" stroke-linecap="round" stroke-linejoin="round"/>
<path d="M324.638 118.51C324.638 118.51 328.692 122.909 334.184 120.498" stroke="#D66D78" stroke-width="0.987819" stroke-miterlimit="10" stroke-linecap="round" stroke-linejoin="round"/>
<path d="M300.844 103.995C300.844 103.995 300.999 97.8835 296.565 99.3946" stroke="#D66D78" stroke-width="0.987819" stroke-miterlimit="10" stroke-linecap="round" stroke-linejoin="round"/>
<path d="M307.611 75.7953C307.611 75.7953 317.912 87.5394 311.905 91.684C305.217 96.3034 303.965 103.12 303.965 103.12C303.965 103.12 304.189 100.707 301.445 96.1838C298.701 91.6486 292.929 75.7083 307.611 75.7953Z" fill="#8F4A3F"/>
<path d="M396.098 265.245C403.69 270.801 465.09 206.986 465.09 206.986L455.102 192.297C455.102 192.297 409.141 220.15 402.535 224.104C393.013 229.792 370.562 246.571 396.098 265.245Z" fill="#04D361"/>
<path d="M366.006 225.845C366.006 225.845 369.7 195.822 369.58 186.245C369.58 186.245 372.457 211.657 371.735 235.021L366.006 225.845Z" fill="#03A14A"/>
<path d="M266.5 212.092C266.5 212.092 282.501 150.73 267.668 150.941C267.668 150.941 262.816 151.38 252.83 166.357C245.844 176.828 237.956 195.125 223.702 224.84C216.964 238.884 208.491 257.915 222.936 259.453C230.751 260.286 239.125 256.102 244.295 246.881C253.766 229.989 266.5 212.092 266.5 212.092Z" fill="#04D361"/>
<path d="M276.198 289.507L352.171 273.611C352.159 273.611 327.824 291.31 276.198 289.507Z" fill="#03A14A"/>
<path d="M258.221 224.245C258.221 224.245 271.158 202.208 278.001 191.476L259.833 276.87C259.833 276.87 259.58 241.722 258.221 224.245Z" fill="#03A14A"/>
<path d="M305.635 255.201L259.82 275.58L262.924 253.09L305.635 255.201Z" fill="#03A14A"/>
<path d="M313.149 251.695L313.149 251.695L322.068 209.57L322.068 209.569C322.539 207.321 324.473 205.781 326.635 205.857L342.443 206.409C345.226 206.506 347.302 209.228 346.681 212.153L346.681 212.154L337.763 254.277C337.763 254.278 337.763 254.278 337.762 254.278C337.28 256.528 335.344 258.067 333.195 257.992L317.387 257.44C314.603 257.342 312.528 254.621 313.149 251.695Z" fill="#04D361" stroke="#04D361" stroke-width="1.28188"/>
<path d="M335.065 260.498L319.257 259.946C316.044 259.834 313.717 256.712 314.415 253.428L323.333 211.303C323.865 208.768 326.059 206.995 328.551 207.082L344.358 207.634C347.571 207.747 349.898 210.869 349.201 214.153L340.282 256.277C339.751 258.813 337.556 260.585 335.065 260.498Z" fill="white"/>
<path d="M324.652 221.975L324.652 221.975L324.653 221.969L326.831 211.682L326.831 211.682L326.832 211.678C326.87 211.488 327.026 211.381 327.177 211.386L330.005 211.485C330.193 211.491 330.384 211.689 330.326 211.954L330.326 211.954L330.325 211.96L328.147 222.247L328.147 222.247L328.146 222.251C328.108 222.441 327.952 222.549 327.801 222.543L324.972 222.444C324.785 222.438 324.594 222.24 324.652 221.975Z" fill="#04D361" stroke="#04D361" stroke-width="1.28188"/>
<path d="M291.433 236.023C291.433 236.023 299.149 236.025 305.116 234.348C307.682 233.623 312.744 232.851 314.497 230.394C316.262 227.914 316.302 222.43 317.986 222.258C319.284 222.121 321.719 226.499 320.954 229.367C320.204 232.175 319.835 233.731 318.801 234.96C318.46 235.374 329.293 236.555 336.228 235.216C340.98 234.299 339.413 239.122 336.158 240.541C336.158 240.541 337.195 243.557 333.819 244.448C333.819 244.448 333.715 248.422 330.519 248.493C330.126 249.404 329.441 251.35 326.657 251.958C322.605 252.851 316.527 253.027 310.435 252.243C307.338 251.843 292.905 253.966 292.905 253.966L291.433 236.023Z" fill="#FFCAD0"/>
<path d="M222.462 259.668C233.392 262.056 299.233 256.62 299.233 256.62L298.44 232.619C298.44 232.619 244.919 233.353 237.818 232.436C214.333 229.439 208.859 256.699 222.462 259.668Z" fill="#04D361"/>
<path d="M310.837 57.8332C312.008 56.6942 313.309 55.4869 314.898 55.36C316.488 55.233 318.238 56.8388 317.659 58.3998C323.134 56.1462 328.832 54.5208 334.634 53.5558C336.088 53.3146 337.656 53.1261 338.972 53.841C340.275 54.5555 341.034 56.5159 340.084 57.6869C342.84 58.8777 345.961 58.2691 348.943 58.0084C351.924 57.7476 355.305 58.0238 357.239 60.3901C359.039 62.5815 358.962 65.7898 358.803 68.679C358.571 72.636 358.339 76.6173 357.343 80.4503C355.863 86.1152 352.699 91.2834 348.383 95.0613C349.784 90.6586 347.733 85.6488 344.328 82.6717C340.936 79.6828 336.471 78.3957 332.077 77.7192C326.815 76.903 321.432 76.861 316.139 77.5762C312.145 78.1179 306.373 80.8719 302.493 78.8633C293.895 74.4277 307.339 61.2382 310.837 57.8332Z" fill="#8F4A3F"/>
</g>
<path d="M444.185 113.742L389.451 111.83C385.261 111.684 381.986 108.018 382.138 103.645L382.975 79.6886C383.128 75.3153 386.651 71.8868 390.841 72.0331L445.575 73.9445C449.766 74.0908 453.041 77.7567 452.888 82.13L452.052 106.086C451.899 110.459 448.376 113.888 444.185 113.742Z" fill="#04D361"/>
<path d="M393.662 109.399L393.281 120.308L404.887 109.012L393.662 109.399Z" fill="#04D361"/>
<path d="M398.473 96.7835C400.884 96.8677 402.909 94.8964 402.997 92.3804C403.085 89.8645 401.202 87.7566 398.791 87.6725C396.38 87.5883 394.355 89.5596 394.267 92.0755C394.179 94.5915 396.062 96.6993 398.473 96.7835Z" fill="#F0F0F5"/>
<path d="M417.354 97.4427C419.765 97.5269 421.79 95.5555 421.878 93.0396C421.966 90.5237 420.083 88.4158 417.672 88.3316C415.261 88.2474 413.235 90.2188 413.148 92.7347C413.06 95.2507 414.943 97.3585 417.354 97.4427Z" fill="#F0F0F5"/>
<path d="M436.235 98.1021C438.646 98.1863 440.671 96.215 440.759 93.699C440.847 91.1831 438.964 89.0752 436.553 88.9911C434.142 88.9069 432.117 90.8782 432.029 93.3941C431.941 95.9101 433.824 98.0179 436.235 98.1021Z" fill="#F0F0F5"/>
<path d="M583.421 443.252L579.842 474.641L592.705 475.09L600.486 443.848L583.421 443.252Z" fill="#FEC9CF"/>
<path d="M594.332 468.555C594.332 468.555 599.591 478.164 595.342 479.695C591.093 481.225 563.499 480.407 556.727 479.112C549.954 477.806 572.295 468.843 577.377 467.488C582.471 466.134 583.81 474.171 594.332 468.555Z" fill="#6842C2"/>
<path d="M651.053 445.614L652.422 477.176L639.559 476.726L633.988 445.018L651.053 445.614Z" fill="#FEC9CF"/>
<path d="M638.392 470.093C638.392 470.093 632.476 479.313 636.608 481.136C640.74 482.959 668.323 484.068 675.169 483.249C682.016 482.417 660.356 471.919 655.38 470.212C650.405 468.506 648.497 476.43 638.392 470.093Z" fill="#6842C2"/>
<path d="M586.847 271.06L574.425 459.577L601.582 460.525L611.827 335.034L630.581 465.15L660.339 461.044C660.339 461.044 638.561 319.061 635.632 272.776L586.847 271.072L586.847 271.06Z" fill="#D8D8E3"/>
<path d="M610.278 343.609L610.067 323.306L611.183 335.018L610.278 343.609Z" fill="#194248" stroke="#E1E1E8" stroke-width="1.28188"/>
<path d="M626.902 272.459L651.758 461.803" stroke="#E1E1E8" stroke-width="1.28188" stroke-miterlimit="10" stroke-linecap="round" stroke-linejoin="round"/>
<path d="M625.218 133.123C631.014 133.338 637.062 136.723 638.818 142.489C640.178 146.927 638.857 152.063 640.832 156.243C642.286 159.334 645.337 161.399 646.637 164.558C649.322 171.122 643.384 178.602 644.949 185.541C646.391 191.964 653.818 195.873 654.218 202.467C654.479 206.672 651.509 210.594 647.802 212.289C644.106 213.997 639.846 213.836 635.889 213.004C626.183 210.95 617.182 205.041 607.269 205.23C603.187 205.307 598.883 206.397 595.169 204.625C592.521 203.365 590.663 200.831 589.037 198.317C587.169 195.43 585.395 192.157 585.702 188.69C586.148 183.597 590.708 180.18 593.512 175.985C596.377 171.694 597.709 166.255 597.133 161.066C594.393 136.401 607.59 137.616 609.28 137.638C610.829 137.656 616.089 134.544 618.148 133.995C620.477 133.383 622.843 133.04 625.218 133.123Z" fill="#D38D00"/>
<path d="M559.497 233.908C554.06 229.06 531.84 212.545 531.695 210.338C531.421 206.193 530.149 202.877 521.762 199.763C521.762 199.763 521.041 201.051 522.166 202.538C523.38 204.149 524.386 204.731 524.386 204.731C524.386 204.731 522.097 205.527 518.864 202.641C515.632 199.755 514.33 197.314 512.89 197.835C512.89 197.835 511.293 196.186 510.493 196.401C510.493 196.401 509.905 196.551 509.986 197.211C508.679 196.934 508.774 200.89 510.954 204.214C514.097 208.982 519.806 212.733 523.181 214.201C525.706 215.298 541.599 241.809 552.757 245.008C555.966 245.899 562.028 236.161 559.497 233.908Z" fill="#FCDDC6"/>
<path d="M577.912 211.527C577.912 211.527 552.106 228.968 549.514 233.438C546.922 237.909 548.313 250.132 559.796 242.713C571.278 235.293 589.467 221.734 589.467 221.734L577.912 211.527Z" fill="#FCDDC6"/>
<path d="M591.427 195.3C591.427 195.3 584.449 196.88 579.64 202.441C575.607 207.105 569.11 214.613 569.11 214.613L587.66 230.757C587.672 230.745 593.311 202.773 591.427 195.3Z" fill="#47248F"/>
<path d="M635.632 272.764L586.835 271.06C586.835 271.06 587.338 262.332 585.099 248.668C582.849 235.016 584.459 227.969 587.418 220.981C590.39 213.994 586.107 197.449 591.427 195.3C593.59 194.426 597.345 193.025 601.029 191.682C601.961 191.35 602.882 191.005 603.767 190.683C608.041 189.129 611.64 187.844 611.64 187.844L620.429 188.151C620.429 188.151 626.409 190.452 632.535 193.257C633.338 193.625 634.152 194.006 634.954 194.387C634.954 194.399 634.954 194.399 634.954 194.399C638.037 195.881 640.979 197.431 642.969 198.827C649.421 203.309 635.632 272.764 635.632 272.764Z" fill="#6842C2"/>
<path d="M609.471 165.206L609.744 184.093L609.823 189.484C609.86 191.771 610.743 193.846 612.182 195.368C613.609 196.889 615.58 197.846 617.769 197.922C622.402 198.084 626.266 194.23 626.318 189.403L626.42 179.798L626.581 163.833L609.471 165.206Z" fill="#FFDFC8"/>
<path d="M609.471 165.206L609.782 182.999C617.767 183.619 623.729 180.421 626.565 175.996L626.593 163.834L609.471 165.206Z" fill="#DA9F74"/>
<path d="M603.625 150.382C603.625 150.382 602.816 156.508 603.406 163.328C604.086 171.221 604.609 180.252 614.509 181.449C626.301 182.871 630.742 168.819 630.742 168.819C630.742 168.819 636.283 167.675 637.095 163.787C637.907 159.887 633.851 158.565 632.376 159.754C632.376 159.754 631.324 143.152 616.68 142.64C603.736 142.188 603.625 150.382 603.625 150.382Z" fill="#FFDFC8"/>
<path d="M634.955 194.387C634.954 194.399 634.954 194.399 634.955 194.387C624.499 206.769 612.716 205.761 612.716 205.761C603.478 203.31 601.029 191.682 601.029 191.682C601.961 191.35 602.882 191.005 603.768 190.683C608.041 189.129 611.64 187.844 611.64 187.844L620.429 188.151C620.429 188.151 626.409 190.452 632.535 193.257C633.338 193.625 634.152 194.006 634.955 194.387Z" fill="#04D361"/>
<path d="M632.535 193.257C621.922 204.477 613.118 202.953 613.118 202.953C603.74 198.819 603.768 190.683 603.768 190.683C608.041 189.129 611.64 187.844 611.64 187.844L620.429 188.151C620.429 188.151 626.409 190.452 632.535 193.257Z" fill="#FCDDC6"/>
<path d="M609.134 138.801C609.134 138.801 610.078 150.814 602.572 154.505C602.572 154.505 599.388 139.884 609.134 138.801Z" fill="#D38D00"/>
<path d="M606.859 139.865C606.859 139.865 609.114 150.379 615.589 151.214C622.063 152.048 620.719 157.498 626.447 158.331C629.856 158.827 631.251 162.598 631.251 162.598C631.251 162.598 631.881 158.922 635.023 157.718C638.189 156.515 628.71 128.562 606.859 139.865Z" fill="#D38D00"/>
<path d="M617.007 165.335C616.984 165.991 617.466 166.531 618.095 166.553C618.723 166.575 619.242 166.07 619.265 165.414C619.288 164.758 618.806 164.218 618.177 164.196C617.56 164.175 617.029 164.691 617.007 165.335Z" fill="#60423D"/>
<path d="M606.787 164.977C606.765 165.633 607.247 166.173 607.875 166.195C608.504 166.217 609.022 165.712 609.045 165.056C609.068 164.4 608.574 163.86 607.958 163.839C607.329 163.817 606.81 164.334 606.787 164.977Z" fill="#60423D"/>
<path d="M622.399 161.412C622.399 161.412 620.824 158.475 617.215 159.383" stroke="#561E15" stroke-width="1.28188" stroke-miterlimit="10" stroke-linecap="round" stroke-linejoin="round"/>
<path d="M611.069 159.132C611.069 159.132 608.571 156.588 605.951 159.184" stroke="#561E15" stroke-width="1.28188" stroke-miterlimit="10" stroke-linecap="round" stroke-linejoin="round"/>
<path d="M613.225 162.138C613.225 162.138 611.889 165.351 610.782 167.343C609.675 169.336 612.717 170.342 612.717 170.342" stroke="#DA9F74" stroke-width="0.961412" stroke-miterlimit="10" stroke-linecap="round" stroke-linejoin="round"/>
<path d="M619.632 172.895C619.632 172.895 617.537 175.85 614.098 174.867" stroke="#DA9F74" stroke-width="0.961412" stroke-miterlimit="10" stroke-linecap="round" stroke-linejoin="round"/>
<path d="M632.157 165.037C632.157 165.037 632.32 161.37 634.903 162.47" stroke="#DA9F74" stroke-width="0.961412" stroke-miterlimit="10" stroke-linecap="round" stroke-linejoin="round"/>
<path d="M588.26 258.971L543.56 257.41C542.675 257.379 541.98 256.601 542.012 255.677C542.044 254.754 542.792 254.026 543.677 254.057L588.377 255.618C589.261 255.649 589.957 256.427 589.925 257.351C589.88 258.286 589.144 259.002 588.26 258.971Z" fill="#04D361"/>
<path d="M539.92 217.617L539.92 217.617L539.92 217.615C539.677 216.433 540.58 215.377 541.657 215.415L581.922 216.821C582.694 216.848 583.37 217.419 583.532 218.243L583.533 218.245L590.94 255.078L547.149 253.549L539.92 217.617Z" fill="#04D361" stroke="#04D361" stroke-width="1.28188"/>
<path d="M588.633 255.639L543.525 254.064L536.196 217.636C535.877 216.08 537.059 214.613 538.584 214.666L578.849 216.072C579.931 216.11 580.848 216.908 581.066 218.011L588.633 255.639Z" fill="white"/>
<path d="M622.855 260.179L589.028 258.998C588.201 258.969 587.551 258.241 587.581 257.378L587.588 257.172C587.618 256.309 588.318 255.628 589.144 255.657L622.972 256.838C623.798 256.867 624.449 257.595 624.419 258.458L624.411 258.664C624.393 259.539 623.693 260.208 622.855 260.179Z" fill="#04D361"/>
<path d="M563.586 233.081L563.586 233.082C563.92 234.093 563.909 235.102 563.645 235.906C563.381 236.711 562.883 237.269 562.266 237.497C561.656 237.717 560.953 237.601 560.285 237.147C559.614 236.691 559.011 235.91 558.677 234.898C558.342 233.886 558.354 232.875 558.618 232.069C558.883 231.261 559.381 230.705 559.995 230.483C560.606 230.262 561.311 230.376 561.979 230.829C562.649 231.282 563.251 232.062 563.586 233.081Z" fill="#04D361" stroke="#04D361" stroke-width="1.28188"/>
<path d="M638.641 257.385L637.093 217.607L642.143 234.508L638.641 257.385Z" fill="#47248F"/>
<path d="M640.27 221.756C640.27 221.756 645.867 261.043 647.367 267.493C648.34 271.663 656.367 274.765 659.107 269.387C659.708 268.204 659.65 266.195 659.663 264.152C659.708 251.517 652.367 219.102 652.367 219.102L640.27 221.756Z" fill="#FCDDC6"/>
<path d="M642.982 198.827C642.982 198.827 647.06 201.195 650.332 207.598C653.605 214 658.038 225.247 657.641 227.922C655.645 233.021 641.117 237.865 641.117 237.865C641.117 237.865 632.684 204.67 642.982 198.827Z" fill="#6842C2"/>
<path d="M648.899 259.994C648.899 259.994 626.811 258.712 622.712 255.966C617.154 252.232 615.786 253.717 612.521 252.751C607.284 251.194 607.827 252.332 607.827 252.332C607.827 252.332 607.96 255.536 612.032 256.079C614.085 256.358 617.138 257.376 616.468 257.876C616.468 257.876 600.015 259.089 596.711 259.278C593.406 259.467 594.92 262.171 597.413 262.866C597.413 262.866 598.845 264.899 601.299 264.376C601.299 264.376 600.725 265.475 607.034 265.696C613.343 265.916 619.798 262.638 622.946 264.269C626.094 265.899 643.137 273.488 654.158 272.255C659.424 271.661 659.55 269.038 659.647 266.268C659.815 261.47 656.437 260.743 648.899 259.994Z" fill="#FCDDC6"/>
<path d="M183.811 429.298L175.413 460.518L162.55 460.069L166.746 428.702L183.811 429.298Z" fill="#BC8567"/>
<path d="M161.384 453.436C161.384 453.436 155.468 462.656 159.6 464.479C163.732 466.301 191.315 467.41 198.162 466.591C205.009 465.76 183.348 455.261 178.373 453.555C173.397 451.849 171.489 459.773 161.384 453.436Z" fill="#6842C2"/>
<path d="M143.302 427.883L137.791 459.204L124.928 458.755L126.237 427.287L143.302 427.883Z" fill="#BC8567"/>
<path d="M123.762 452.122C123.762 452.122 117.846 461.342 121.978 463.164C126.11 464.987 153.693 466.096 160.539 465.277C167.387 464.446 145.726 453.947 140.75 452.241C135.775 450.535 133.867 458.459 123.762 452.122Z" fill="#6842C2"/>
<path d="M127.002 274.9L122.091 442.893L142.509 443.606L161.24 320.71L175.928 371.358L161.063 444.266L183.273 445.042C183.273 445.042 205.008 382.347 204.651 369.88C204.294 357.4 184.72 271.795 184.72 271.795L127.002 274.9Z" fill="#E9E9F0"/>
<path d="M164.576 329.96L161.882 320.659L163.807 305.826L164.576 329.96Z" fill="#E1E1E8" stroke="#E1E1E8" stroke-width="1.28188"/>
<path d="M138.598 273.274L131.484 443.233" stroke="#E1E1E8" stroke-width="1.28188" stroke-miterlimit="10"/>
<path d="M203.733 200.565C203.733 200.565 216.013 227.059 216.025 235.062C216.037 243.066 207.66 240.985 203.546 233.629C199.433 226.261 193.163 205.559 193.163 205.559L203.733 200.565Z" fill="#BC8567"/>
<path d="M206.125 202.825C206.125 202.825 202.097 209.715 192.879 213.686C190.974 214.508 189.473 212.108 188.394 209.285C187.146 205.994 186.488 202.14 186.488 202.14C186.488 202.14 177.265 168.212 186.384 169.734C186.384 169.734 194.163 170.577 199.479 182.561C200.873 185.687 202.997 191.964 204.747 197.912C205.247 199.608 205.714 201.266 206.125 202.825Z" fill="#47248F"/>
<path d="M206.125 202.825C206.125 202.825 202.097 209.715 192.879 213.687C190.974 214.508 189.473 212.108 188.394 209.285C192.003 207.745 198.85 204.238 204.747 197.912C205.247 199.608 205.714 201.266 206.125 202.825Z" fill="#04D361"/>
<path d="M185.121 273.646C179.121 280.272 141.219 277.939 126.99 274.9C124.491 274.363 122.047 273.268 126.336 264.271C127.945 260.91 127.611 252.104 127.777 240.02C128.11 216.132 122.706 176.292 131.235 172.041C136.347 169.483 147.124 166.259 154.951 164.075C155.421 163.958 155.88 163.828 156.327 163.698C160.893 162.446 164.15 161.623 164.15 161.623C164.15 161.623 167.867 162.325 175.386 164.935C175.79 165.071 176.227 165.232 176.664 165.381C178.621 166.082 180.796 166.887 183.222 167.848C187.924 169.703 191.38 170.857 192.172 172.539C194.29 176.955 193.149 184.614 192.901 195.698C192.602 209.614 190.43 267.799 185.121 273.646Z" fill="#6842C2"/>
<path d="M126.94 212.928L135.85 192.392L128.02 245.745L126.94 212.928Z" fill="#47248F"/>
<path d="M176.664 165.393C176.387 168.327 175.027 170.87 173.052 172.699C171.029 174.574 168.345 175.66 165.47 175.56C159.522 175.352 154.876 170.215 154.974 164.064C155.444 163.947 155.904 163.817 156.351 163.687C160.917 162.435 164.174 161.612 164.174 161.612C164.174 161.612 167.891 162.314 175.41 164.924C175.8 165.096 176.226 165.244 176.664 165.393Z" fill="#04D361"/>
<path d="M183.225 119.737C183.225 119.737 179.065 115.287 172.579 114.037C163.091 112.208 150.416 115.008 147.384 130.12C145.099 138.81 154.828 153.562 158.722 152.859C158.722 152.859 194.312 131.093 183.225 119.737Z" fill="#43302D"/>
<path d="M176.225 140.578L174.636 159.399L174.18 164.771C173.995 167.052 172.958 169.059 171.417 170.477C169.887 171.895 167.854 172.712 165.665 172.635C161.032 172.473 157.447 168.359 157.731 163.54L158.299 153.951L159.252 138.015L176.225 140.578Z" fill="#BC8567"/>
<path d="M176.094 144.332L174.543 162.06C166.534 162.121 160.809 158.515 158.289 153.902L159.109 141.768L176.094 144.332Z" fill="#765441"/>
<path d="M182.948 129.951C182.948 129.951 183.327 136.119 182.264 142.881C181.035 150.707 181.05 159.951 169.923 160.183C158.05 160.425 154.61 146.452 154.61 146.452C154.61 146.452 148.356 145.005 148.08 140.556C147.804 136.107 152.213 136.005 153.601 137.294C153.601 137.294 155.809 120.806 170.453 121.317C183.408 121.782 182.948 129.951 182.948 129.951Z" fill="#BC8567"/>
<path d="M168.983 141.358C168.96 142.039 168.417 142.567 167.765 142.544C167.113 142.521 166.609 141.956 166.632 141.276C166.656 140.596 167.199 140.068 167.851 140.091C168.491 140.113 169.007 140.678 168.983 141.358Z" fill="#60423D"/>
<path d="M180.332 141.122C180.308 141.802 179.765 142.331 179.114 142.308C178.462 142.285 177.957 141.72 177.981 141.04C178.005 140.36 178.547 139.832 179.199 139.855C179.851 139.877 180.356 140.442 180.332 141.122Z" fill="#60423D"/>
<path d="M163.298 137.645C163.298 137.645 165.136 134.717 168.811 135.928" stroke="#43302D" stroke-width="1.28188" stroke-miterlimit="10" stroke-linecap="round" stroke-linejoin="round"/>
<path d="M175.193 136.102C175.193 136.102 177.959 133.645 180.491 136.53" stroke="#43302D" stroke-width="1.28188" stroke-miterlimit="10" stroke-linecap="round" stroke-linejoin="round"/>
<path d="M172.747 139.057C172.747 139.057 173.898 142.479 174.907 144.63C175.916 146.77 172.682 147.593 172.682 147.593" stroke="#765441" stroke-width="0.961412" stroke-miterlimit="10" stroke-linecap="round" stroke-linejoin="round"/>
<path d="M168.057 151.215C168.057 151.215 170.583 153.954 174.003 152.456" stroke="#765441" stroke-width="0.961412" stroke-miterlimit="10" stroke-linecap="round" stroke-linejoin="round"/>
<path d="M153.244 142.17C153.244 142.17 153.342 138.367 150.583 139.304" stroke="#765441" stroke-width="0.961412" stroke-miterlimit="10" stroke-linecap="round" stroke-linejoin="round"/>
<path d="M157.459 124.609C157.459 124.609 163.87 131.924 160.132 134.506C155.976 137.377 155.187 141.631 155.187 141.631C155.187 141.631 155.321 140.127 153.613 137.307C151.905 134.486 148.312 124.557 157.459 124.609Z" fill="#43302D"/>
<path d="M118.359 198.982C118.359 198.982 104.261 224.555 103.691 232.538C103.121 240.521 111.623 239.03 116.24 231.979C120.857 224.915 128.556 204.702 128.556 204.702L118.359 198.982Z" fill="#BC8567"/>
<path d="M211.572 226.088C211.572 226.088 192.441 210.216 191.354 209.315C189.508 207.767 186.813 205.52 185.837 204.756C184.294 203.547 175.099 201.547 173.799 201.72C172.511 201.894 168.938 202.402 167.888 202.767C166.838 203.132 168.094 204.562 169.095 205.254C170.097 205.945 174.551 208.558 178.378 209.433C180.505 209.921 182.305 211.115 183.767 212.298C184.935 213.238 204.908 236.036 205.669 236.597L211.572 226.088Z" fill="#BC8567"/>
<path d="M187.882 206.604C187.882 206.604 180.731 199.117 179.621 199.188C178.523 199.259 179.246 200.914 182.07 203.482C183.031 204.354 184.044 205.715 184.913 206.184C186.618 207.095 187.882 206.604 187.882 206.604Z" fill="#BC8567"/>
<path d="M181.006 232.46L181.002 232.461L153.891 234.883C152.802 234.979 151.881 233.883 152.221 232.697L159.573 207.047L159.573 207.047C159.77 206.359 160.339 205.892 160.98 205.839L160.984 205.838L188.095 203.416C188.095 203.416 188.096 203.416 188.096 203.416C189.184 203.32 190.104 204.416 189.765 205.602C189.765 205.602 189.765 205.602 189.765 205.602L182.413 231.252L182.413 231.252C182.216 231.94 181.647 232.407 181.006 232.46Z" fill="#04D361" stroke="#04D361" stroke-width="1.28188"/>
<path d="M182.229 234.004L155.117 236.426C153.539 236.565 152.323 235.003 152.774 233.425L160.127 207.775C160.392 206.847 161.173 206.181 162.097 206.104L189.209 203.682C190.787 203.542 192.003 205.105 191.551 206.683L184.199 232.333C183.934 233.248 183.153 233.914 182.229 234.004Z" fill="white"/>
<path d="M162.162 213.065L162.162 213.065L162.161 213.072C162.156 213.087 162.147 213.103 162.13 213.118C162.114 213.131 162.096 213.139 162.078 213.143L160.79 213.254L160.79 213.254C160.779 213.255 160.772 213.253 160.765 213.25C160.757 213.246 160.745 213.238 160.734 213.224C160.711 213.194 160.7 213.153 160.713 213.108L160.713 213.107L162.159 208.074L162.159 208.074L162.163 208.063C162.175 208.015 162.207 208 162.225 207.998L163.532 207.886L163.532 207.886C163.543 207.885 163.55 207.887 163.557 207.89C163.565 207.894 163.576 207.902 163.588 207.916C163.611 207.946 163.622 207.987 163.608 208.032L163.608 208.033L162.162 213.065ZM161.543 207.897L160.097 212.93L162.168 207.36C161.876 207.386 161.624 207.596 161.543 207.897Z" fill="#04D361" stroke="#04D361" stroke-width="1.28188"/>
<path d="M109 225.012C117.23 225.64 143.01 225.981 146.463 224.885C147.948 224.414 151.584 223.75 152.556 222.288C153.54 220.802 154.413 218.522 155.385 218.386C156.134 218.278 155.872 220.774 155.619 221.678C155.143 223.303 154.834 224.144 154.249 224.877C154.054 225.126 160.365 226.295 164.383 225.377C167.144 224.744 166.552 227.01 164.679 227.905C164.679 227.905 165.343 229.923 163.388 230.512C163.388 230.512 163.648 232.734 161.78 232.839C161.563 233.379 160.946 234.343 159.323 234.761C156.971 235.36 152.933 235.206 149.855 235.233C148.036 235.242 112.74 239.738 106.593 237.894C104.032 237.123 106.327 224.809 109 225.012Z" fill="#BC8567"/>
<path d="M133.451 203.012C133.451 203.012 132.762 205.384 131.78 207.819C130.684 210.505 129.224 213.252 127.894 212.95C127.894 212.95 109.898 206.313 110.571 204.39C111.076 202.96 111.921 201.105 112.961 199.049C116.204 192.619 121.286 184.258 123.334 181.021C130.316 169.965 132.967 171.493 132.967 171.493C142.214 171.354 133.451 203.012 133.451 203.012Z" fill="#6842C2"/>
<path d="M131.78 207.819C130.684 210.505 129.224 213.252 127.894 212.95C127.894 212.95 109.898 206.313 110.571 204.39C111.076 202.96 111.921 201.105 112.961 199.049C116.255 200.818 125.149 205.471 131.78 207.819Z" fill="#04D361"/>
<path d="M135.696 261.217C135.696 261.217 166.138 257.208 182.789 247.658C182.789 247.658 163.895 266.057 135.696 261.217Z" fill="#47248F"/>
<path d="M508.95 394.773L430.248 392.025C426.372 391.889 423.355 388.5 423.496 384.467L424.882 344.779C425.023 340.734 428.28 337.576 432.145 337.711L510.847 340.459C514.723 340.594 517.74 343.984 517.599 348.017L516.214 387.693C516.084 391.738 512.827 394.908 508.95 394.773Z" fill="#6842C2"/>
<path d="M432.077 378.04C439.41 378.296 439.728 369.185 447.062 369.442C454.396 369.698 454.82 357.55 462.153 357.806C469.487 358.062 469.325 362.714 476.658 362.971C483.992 363.227 484.384 351.99 491.718 352.246C499.051 352.502 498.436 370.129 505.769 370.385" stroke="white" stroke-width="2.56376" stroke-miterlimit="10" stroke-linecap="round" stroke-linejoin="round"/>
<path d="M434.218 378.115C434.261 376.888 433.341 375.859 432.166 375.818C430.99 375.777 430.001 376.739 429.959 377.966C429.916 379.193 430.835 380.222 432.011 380.263C433.186 380.304 434.175 379.342 434.218 378.115Z" fill="white"/>
<path d="M507.91 370.471C507.953 369.245 507.033 368.215 505.858 368.174C504.682 368.133 503.693 369.096 503.65 370.323C503.607 371.549 504.527 372.579 505.702 372.62C506.878 372.661 507.867 371.698 507.91 370.471Z" fill="white"/>
<path d="M63.8221 92.3189L142.431 95.064C147.693 95.2477 152.12 90.9386 152.312 85.4476L153.186 60.4105C153.378 54.9196 149.262 50.312 144 50.1283L65.3913 47.3832C60.1298 47.1995 55.702 51.5086 55.5102 56.9996L54.6359 82.0367C54.4437 87.5398 58.5606 92.1352 63.8221 92.3189Z" fill="#6842C2"/>
<path d="M140.344 92.4126L139.963 103.322L129.161 91.2437L140.344 92.4126Z" fill="#6842C2"/>
<path d="M64.5052 58.3962L86.2964 59.1572" stroke="white" stroke-width="2.84129" stroke-miterlimit="10" stroke-linecap="round" stroke-linejoin="round"/>
<path d="M94.061 59.4282L144.116 61.1762" stroke="white" stroke-width="2.84129" stroke-miterlimit="10" stroke-linecap="round" stroke-linejoin="round"/>
<path d="M64.1057 69.8398L104.731 71.2585" stroke="white" stroke-width="2.84129" stroke-miterlimit="10" stroke-linecap="round" stroke-linejoin="round"/>
<path d="M110.948 71.4756L122.972 71.8955" stroke="white" stroke-width="2.84129" stroke-miterlimit="10" stroke-linecap="round" stroke-linejoin="round"/>
<path d="M129.421 72.1206L143.716 72.6198" stroke="white" stroke-width="2.84129" stroke-miterlimit="10" stroke-linecap="round" stroke-linejoin="round"/>
<path d="M63.7065 81.271L72.9026 81.5921" stroke="white" stroke-width="2.84129" stroke-miterlimit="10" stroke-linecap="round" stroke-linejoin="round"/>
<path d="M78.5369 81.7888L111.713 82.9473" stroke="white" stroke-width="2.84129" stroke-miterlimit="10" stroke-linecap="round" stroke-linejoin="round"/>
<path d="M554.515 68.8332L534.342 68.1288C530.594 67.9979 527.667 64.7211 527.803 60.8095L528.538 39.7569C528.675 35.8452 531.824 32.7807 535.572 32.9115L555.745 33.616C559.494 33.7469 562.421 37.0236 562.284 40.9353L561.549 61.9879C561.413 65.8996 558.264 68.9641 554.515 68.8332Z" fill="#6842C2"/>
<path d="M556.59 49.4562L556.17 47.1305C556.093 46.6778 555.66 46.383 555.226 46.4651L553.911 46.7354C553.571 46.8087 553.239 46.6268 553.063 46.3166C552.58 45.4605 551.978 44.6854 551.278 44.0285C550.996 43.7632 550.918 43.3469 551.093 43.0003L551.794 41.626C552.006 41.2199 551.849 40.7036 551.46 40.4954L549.447 39.3913C549.059 39.171 548.564 39.3361 548.363 39.7426L547.611 41.2367C547.448 41.5716 547.081 41.7291 546.734 41.6683C546.305 41.5925 545.853 41.5402 545.41 41.5248C544.956 41.5089 544.513 41.5299 544.08 41.5756C543.717 41.6116 543.374 41.4293 543.235 41.0839L542.589 39.541C542.406 39.1211 541.935 38.9222 541.532 39.1149L539.447 40.0759C539.044 40.2686 538.852 40.7606 539.036 41.1805L539.639 42.6003C539.789 42.9583 539.67 43.3677 539.382 43.613C538.638 44.2317 537.972 44.9503 537.442 45.7711C537.245 46.0683 536.901 46.2266 536.567 46.1297L535.274 45.7684C534.847 45.6561 534.406 45.9205 534.286 46.3663L533.705 48.657C533.596 49.1032 533.848 49.562 534.275 49.6864L535.914 50.1329C535.894 50.3754 535.863 50.6054 535.854 50.8484C535.814 52.0024 535.973 53.127 536.298 54.16C536.402 54.5042 536.307 54.8901 536.02 55.1112L535.361 55.6233C535.002 55.9027 534.925 56.423 535.192 56.7972L536.477 58.703C536.744 59.0772 537.242 59.1554 537.602 58.8761L538.057 58.515C538.368 58.2826 538.787 58.3093 539.07 58.5625C539.975 59.3482 541.013 59.9683 542.165 60.3612C542.511 60.4827 542.756 60.8075 542.742 61.1963L542.725 61.6822C542.709 62.1438 543.057 62.533 543.499 62.5484L545.769 62.6277C546.211 62.6432 546.585 62.2792 546.601 61.8175L546.618 61.3316C546.632 60.9429 546.899 60.636 547.252 60.5388C548.428 60.2272 549.508 59.6932 550.466 58.9604C550.777 58.728 551.197 58.7184 551.479 58.9836L551.908 59.3757C552.247 59.6794 552.75 59.6362 553.042 59.2815L554.526 57.4846C554.819 57.1299 554.779 56.6055 554.44 56.3017L553.818 55.7449C553.547 55.5043 553.479 55.1127 553.607 54.7766C554.004 53.7566 554.24 52.6581 554.281 51.504C554.289 51.2611 554.274 51.0294 554.271 50.7861L555.937 50.455C556.384 50.349 556.667 49.9089 556.59 49.4562ZM544.829 57.1702C541.651 57.0593 539.172 54.2847 539.288 50.9683C539.404 47.6519 542.07 45.057 545.248 45.168C548.426 45.2789 550.905 48.0535 550.789 51.3699C550.673 54.6863 548.007 57.2812 544.829 57.1702Z" fill="white"/>
<path d="M728.686 214.51C731.217 201.304 723.014 188.493 710.365 185.896C697.716 183.298 685.411 191.898 682.881 205.104C680.35 218.31 688.553 231.121 701.202 233.718C713.85 236.316 726.156 227.716 728.686 214.51Z" fill="#6842C2"/>
<path d="M718.447 213.451C720.37 206.151 716.262 198.626 709.271 196.644C702.28 194.661 695.054 198.972 693.13 206.272C691.207 213.572 695.315 221.097 702.306 223.08C709.297 225.062 716.523 220.751 718.447 213.451Z" fill="#6842C2" stroke="white" stroke-width="2.56376" stroke-miterlimit="10" stroke-linecap="round" stroke-linejoin="round"/>
<path d="M706.079 200.86L705.767 209.813L701.073 214.38" fill="#6842C2"/>
<path d="M706.079 200.86L705.767 209.813L701.073 214.38" stroke="white" stroke-width="2.56376" stroke-miterlimit="10" stroke-linecap="round" stroke-linejoin="round"/>
<path d="M706.244 196.122L706.198 197.434" stroke="white" stroke-width="2.56376" stroke-miterlimit="10" stroke-linecap="round" stroke-linejoin="round"/>
<path d="M705.333 222.204L705.288 223.504" stroke="white" stroke-width="2.56376" stroke-miterlimit="10" stroke-linecap="round" stroke-linejoin="round"/>
<path d="M718.886 210.271L717.627 210.227" stroke="white" stroke-width="2.56376" stroke-miterlimit="10" stroke-linecap="round" stroke-linejoin="round"/>
<path d="M693.905 209.399L692.647 209.355" stroke="white" stroke-width="2.56376" stroke-miterlimit="10" stroke-linecap="round" stroke-linejoin="round"/>
</svg>
