<svg width="1009" height="689" viewBox="0 0 1009 689" fill="none" xmlns="http://www.w3.org/2000/svg">
<path d="M941.868 191.439C941.503 196.663 937.148 200.615 932.141 200.265C927.135 199.915 923.372 195.396 923.737 190.171C924.103 184.946 928.458 180.994 933.464 181.344C938.455 181.693 942.233 186.214 941.868 191.439Z" stroke="#04D361" stroke-width="3.48476" stroke-miterlimit="10" stroke-linecap="round" stroke-linejoin="round"/>
<path d="M938.901 197.79L944.829 204.927" stroke="#04D361" stroke-width="3.48476" stroke-miterlimit="10" stroke-linecap="round" stroke-linejoin="round"/>
<path d="M596.103 39.2078L604.944 49.828" stroke="#04D361" stroke-width="3.48476" stroke-miterlimit="10" stroke-linecap="round" stroke-linejoin="round"/>
<path d="M605.64 39.8747L595.407 49.1611" stroke="#04D361" stroke-width="3.48476" stroke-miterlimit="10" stroke-linecap="round" stroke-linejoin="round"/>
<path d="M692.733 621.792L701.575 632.412" stroke="#04D361" stroke-width="3.48476" stroke-miterlimit="10" stroke-linecap="round" stroke-linejoin="round"/>
<path d="M702.271 622.459L692.037 631.745" stroke="#04D361" stroke-width="3.48476" stroke-miterlimit="10" stroke-linecap="round" stroke-linejoin="round"/>
<path d="M96.6938 447.568L95.7096 461.643" stroke="#04D361" stroke-width="3.48476" stroke-miterlimit="10" stroke-linecap="round" stroke-linejoin="round"/>
<path d="M102.963 455.077L89.4595 454.133" stroke="#04D361" stroke-width="3.48476" stroke-miterlimit="10" stroke-linecap="round" stroke-linejoin="round"/>
<path d="M74.9179 337.447C74.5883 342.161 70.6557 345.745 66.123 345.428C61.6061 345.112 58.1936 341.031 58.5244 336.3C58.854 331.587 62.7866 328.003 67.3193 328.32C71.8509 328.653 75.2475 332.733 74.9179 337.447Z" stroke="#04D361" stroke-width="3.48476" stroke-miterlimit="10" stroke-linecap="round" stroke-linejoin="round"/>
<path d="M400.663 568.129C400.333 572.842 396.4 576.427 391.868 576.11C387.351 575.794 383.938 571.713 384.269 566.982C384.599 562.269 388.531 558.684 393.064 559.001C397.595 559.335 400.992 563.415 400.663 568.129Z" stroke="#04D361" stroke-width="3.48476" stroke-miterlimit="10" stroke-linecap="round" stroke-linejoin="round"/>
<path d="M952.36 451.898C952.03 456.612 948.098 460.196 943.565 459.879C939.048 459.563 935.636 455.482 935.966 450.752C936.296 446.038 940.229 442.454 944.761 442.771C949.293 443.104 952.689 447.184 952.36 451.898Z" stroke="#04D361" stroke-width="3.48476" stroke-miterlimit="10" stroke-linecap="round" stroke-linejoin="round"/>
<path d="M35.7383 184.065C35.6497 185.331 34.6079 186.226 33.4829 186.147C32.3579 186.069 31.4506 185.038 31.5391 183.771C31.6277 182.505 32.6696 181.611 33.7946 181.689C34.9196 181.768 35.8269 182.799 35.7383 184.065Z" fill="#F5F0F7" stroke="#F5F0F7" stroke-width="1.74238"/>
<path d="M56.4749 185.515C56.3863 186.782 55.3444 187.676 54.2194 187.597C53.0944 187.519 52.1872 186.488 52.2757 185.222C52.3643 183.955 53.4062 183.061 54.5312 183.139C55.6561 183.218 56.5634 184.249 56.4749 185.515Z" fill="#F5F0F7" stroke="#F5F0F7" stroke-width="1.74238"/>
<path d="M77.1958 186.964C77.1073 188.231 76.0654 189.125 74.9404 189.047C73.8154 188.968 72.9081 187.937 72.9967 186.671C73.0852 185.404 74.1271 184.51 75.2521 184.589C76.3771 184.667 77.2844 185.698 77.1958 186.964Z" fill="#F5F0F7" stroke="#F5F0F7" stroke-width="1.74238"/>
<path d="M97.9324 188.414C97.8438 189.68 96.8019 190.575 95.6769 190.496C94.552 190.418 93.6447 189.387 93.7332 188.121C93.8218 186.854 94.8637 185.96 95.9887 186.038C97.1137 186.117 98.0209 187.148 97.9324 188.414Z" fill="#F5F0F7" stroke="#F5F0F7" stroke-width="1.74238"/>
<path d="M118.654 189.863C118.565 191.129 117.523 192.024 116.398 191.945C115.273 191.867 114.366 190.836 114.454 189.569C114.543 188.303 115.585 187.409 116.71 187.487C117.835 187.566 118.742 188.597 118.654 189.863Z" fill="#F5F0F7" stroke="#F5F0F7" stroke-width="1.74238"/>
<path d="M139.39 191.313C139.302 192.579 138.26 193.474 137.135 193.395C136.01 193.317 135.102 192.286 135.191 191.019C135.28 189.753 136.321 188.859 137.446 188.937C138.571 189.016 139.479 190.047 139.39 191.313Z" fill="#F5F0F7" stroke="#F5F0F7" stroke-width="1.74238"/>
<path d="M34.2261 205.689C34.1375 206.956 33.0956 207.85 31.9707 207.771C30.8457 207.693 29.9384 206.662 30.0269 205.396C30.1155 204.129 31.1574 203.235 32.2824 203.313C33.4074 203.392 34.3146 204.423 34.2261 205.689Z" fill="#F5F0F7" stroke="#F5F0F7" stroke-width="1.74238"/>
<path d="M54.9629 207.139C54.8744 208.406 53.8324 209.3 52.7075 209.222C51.5825 209.143 50.6752 208.112 50.7638 206.846C50.8523 205.579 51.8942 204.685 53.0192 204.764C54.1442 204.842 55.0515 205.873 54.9629 207.139Z" fill="#F5F0F7" stroke="#F5F0F7" stroke-width="1.74238"/>
<path d="M75.6841 208.588C75.5955 209.855 74.5536 210.749 73.4287 210.67C72.3037 210.592 71.3964 209.561 71.4849 208.295C71.5735 207.028 72.6154 206.134 73.7404 206.212C74.8654 206.291 75.7726 207.322 75.6841 208.588Z" fill="#F5F0F7" stroke="#F5F0F7" stroke-width="1.74238"/>
<path d="M96.4207 210.038C96.3321 211.305 95.2902 212.199 94.1652 212.12C93.0402 212.042 92.133 211.011 92.2215 209.745C92.3101 208.478 93.352 207.584 94.477 207.662C95.6019 207.741 96.5092 208.772 96.4207 210.038Z" fill="#F5F0F7" stroke="#F5F0F7" stroke-width="1.74238"/>
<path d="M117.141 211.487C117.053 212.754 116.011 213.648 114.886 213.57C113.761 213.491 112.854 212.46 112.942 211.194C113.031 209.927 114.073 209.033 115.198 209.112C116.323 209.19 117.23 210.221 117.141 211.487Z" fill="#F5F0F7" stroke="#F5F0F7" stroke-width="1.74238"/>
<path d="M137.878 212.938C137.789 214.204 136.747 215.098 135.622 215.02C134.498 214.941 133.59 213.91 133.679 212.644C133.767 211.378 134.809 210.483 135.934 210.562C137.059 210.64 137.966 211.671 137.878 212.938Z" fill="#F5F0F7" stroke="#F5F0F7" stroke-width="1.74238"/>
<path d="M32.7132 227.33C32.6246 228.597 31.5827 229.491 30.4577 229.412C29.3327 229.334 28.4254 228.303 28.514 227.037C28.6026 225.77 29.6445 224.876 30.7694 224.954C31.8944 225.033 32.8017 226.064 32.7132 227.33Z" fill="#F5F0F7" stroke="#F5F0F7" stroke-width="1.74238"/>
<path d="M53.4497 228.78C53.3612 230.046 52.3193 230.941 51.1943 230.862C50.0693 230.784 49.162 229.753 49.2506 228.486C49.3391 227.22 50.381 226.326 51.506 226.404C52.631 226.483 53.5383 227.514 53.4497 228.78Z" fill="#F5F0F7" stroke="#F5F0F7" stroke-width="1.74238"/>
<path d="M74.1704 230.229C74.0819 231.495 73.04 232.39 71.915 232.311C70.79 232.232 69.8827 231.202 69.9713 229.935C70.0598 228.669 71.1017 227.774 72.2267 227.853C73.3517 227.932 74.259 228.962 74.1704 230.229Z" fill="#F5F0F7" stroke="#F5F0F7" stroke-width="1.74238"/>
<path d="M94.9075 231.679C94.8189 232.945 93.777 233.84 92.652 233.761C91.5271 233.683 90.6198 232.652 90.7083 231.385C90.7969 230.119 91.8388 229.225 92.9638 229.303C94.0888 229.382 94.996 230.413 94.9075 231.679Z" fill="#F5F0F7" stroke="#F5F0F7" stroke-width="1.74238"/>
<path d="M115.628 233.128C115.54 234.395 114.498 235.289 113.373 235.21C112.248 235.132 111.34 234.101 111.429 232.835C111.518 231.568 112.559 230.674 113.684 230.752C114.809 230.831 115.717 231.862 115.628 233.128Z" fill="#F5F0F7" stroke="#F5F0F7" stroke-width="1.74238"/>
<path d="M136.365 234.578C136.276 235.844 135.234 236.739 134.109 236.66C132.984 236.581 132.077 235.551 132.166 234.284C132.254 233.018 133.296 232.123 134.421 232.202C135.546 232.281 136.453 233.312 136.365 234.578Z" fill="#F5F0F7" stroke="#F5F0F7" stroke-width="1.74238"/>
<path d="M31.2007 248.954C31.1122 250.221 30.0702 251.115 28.9453 251.036C27.8203 250.958 26.913 249.927 27.0016 248.661C27.0901 247.394 28.132 246.5 29.257 246.578C30.382 246.657 31.2893 247.688 31.2007 248.954Z" fill="#F5F0F7" stroke="#F5F0F7" stroke-width="1.74238"/>
<path d="M51.9375 250.404C51.849 251.671 50.8071 252.565 49.6821 252.487C48.5571 252.408 47.6498 251.377 47.7384 250.111C47.8269 248.844 48.8688 247.95 49.9938 248.029C51.1188 248.107 52.0261 249.138 51.9375 250.404Z" fill="#F5F0F7" stroke="#F5F0F7" stroke-width="1.74238"/>
<path d="M72.6585 251.854C72.5699 253.12 71.528 254.014 70.403 253.936C69.278 253.857 68.3708 252.826 68.4593 251.56C68.5479 250.294 69.5898 249.399 70.7148 249.478C71.8397 249.556 72.747 250.587 72.6585 251.854Z" fill="#F5F0F7" stroke="#F5F0F7" stroke-width="1.74238"/>
<path d="M93.3953 253.303C93.3067 254.57 92.2648 255.464 91.1398 255.385C90.0149 255.307 89.1076 254.276 89.1961 253.01C89.2847 251.743 90.3266 250.849 91.4516 250.927C92.5766 251.006 93.4838 252.037 93.3953 253.303Z" fill="#F5F0F7" stroke="#F5F0F7" stroke-width="1.74238"/>
<path d="M114.116 254.752C114.028 256.019 112.986 256.913 111.861 256.834C110.736 256.756 109.829 255.725 109.917 254.459C110.006 253.192 111.048 252.298 112.173 252.376C113.297 252.455 114.205 253.486 114.116 254.752Z" fill="#F5F0F7" stroke="#F5F0F7" stroke-width="1.74238"/>
<path d="M134.853 256.202C134.764 257.469 133.722 258.363 132.597 258.284C131.472 258.206 130.565 257.175 130.653 255.909C130.742 254.642 131.784 253.748 132.909 253.826C134.034 253.905 134.941 254.936 134.853 256.202Z" fill="#F5F0F7" stroke="#F5F0F7" stroke-width="1.74238"/>
<path d="M327.14 613.875C327.052 615.141 326.01 616.036 324.885 615.957C323.76 615.879 322.852 614.848 322.941 613.581C323.03 612.315 324.071 611.421 325.196 611.499C326.321 611.578 327.229 612.609 327.14 613.875Z" fill="#F5F0F7" stroke="#F5F0F7" stroke-width="1.74238"/>
<path d="M347.877 615.325C347.789 616.592 346.747 617.486 345.622 617.407C344.497 617.329 343.59 616.298 343.678 615.032C343.767 613.765 344.809 612.871 345.934 612.949C347.059 613.028 347.966 614.059 347.877 615.325Z" fill="#F5F0F7" stroke="#F5F0F7" stroke-width="1.74238"/>
<path d="M368.597 616.774C368.509 618.04 367.467 618.935 366.342 618.856C365.217 618.777 364.31 617.746 364.398 616.48C364.487 615.214 365.529 614.319 366.654 614.398C367.779 614.477 368.686 615.507 368.597 616.774Z" fill="#F5F0F7" stroke="#F5F0F7" stroke-width="1.74238"/>
<path d="M389.335 618.224C389.246 619.49 388.204 620.385 387.079 620.306C385.954 620.227 385.047 619.197 385.135 617.93C385.224 616.664 386.266 615.769 387.391 615.848C388.516 615.927 389.423 616.958 389.335 618.224Z" fill="#F5F0F7" stroke="#F5F0F7" stroke-width="1.74238"/>
<path d="M410.056 619.673C409.968 620.94 408.926 621.834 407.801 621.755C406.676 621.677 405.768 620.646 405.857 619.38C405.946 618.113 406.987 617.219 408.112 617.297C409.237 617.376 410.145 618.407 410.056 619.673Z" fill="#F5F0F7" stroke="#F5F0F7" stroke-width="1.74238"/>
<path d="M325.628 635.516C325.539 636.782 324.497 637.677 323.372 637.598C322.247 637.519 321.34 636.488 321.429 635.222C321.517 633.956 322.559 633.061 323.684 633.14C324.809 633.219 325.716 634.249 325.628 635.516Z" fill="#F5F0F7" stroke="#F5F0F7" stroke-width="1.74238"/>
<path d="M346.364 636.966C346.276 638.232 345.234 639.127 344.109 639.048C342.984 638.969 342.077 637.939 342.165 636.672C342.254 635.406 343.296 634.511 344.421 634.59C345.545 634.669 346.453 635.7 346.364 636.966Z" fill="#F5F0F7" stroke="#F5F0F7" stroke-width="1.74238"/>
<path d="M367.085 638.415C366.997 639.681 365.955 640.575 364.83 640.497C363.705 640.418 362.798 639.387 362.886 638.121C362.975 636.855 364.017 635.96 365.142 636.039C366.266 636.117 367.174 637.148 367.085 638.415Z" fill="#F5F0F7" stroke="#F5F0F7" stroke-width="1.74238"/>
<path d="M387.822 639.865C387.733 641.131 386.691 642.026 385.566 641.947C384.441 641.868 383.534 640.838 383.622 639.571C383.711 638.305 384.753 637.41 385.878 637.489C387.003 637.568 387.91 638.598 387.822 639.865Z" fill="#F5F0F7" stroke="#F5F0F7" stroke-width="1.74238"/>
<path d="M408.542 641.314C408.453 642.58 407.412 643.475 406.287 643.396C405.162 643.317 404.254 642.287 404.343 641.02C404.431 639.754 405.473 638.859 406.598 638.938C407.723 639.017 408.631 640.047 408.542 641.314Z" fill="#F5F0F7" stroke="#F5F0F7" stroke-width="1.74238"/>
<path d="M890.305 109.476C890.217 110.742 889.175 111.636 888.05 111.558C886.925 111.479 886.017 110.448 886.106 109.182C886.195 107.916 887.237 107.021 888.362 107.1C889.487 107.179 890.394 108.209 890.305 109.476Z" fill="#F5F0F7" stroke="#F5F0F7" stroke-width="1.74238"/>
<path d="M911.026 110.925C910.937 112.191 909.895 113.086 908.77 113.007C907.645 112.928 906.738 111.898 906.827 110.631C906.915 109.365 907.957 108.47 909.082 108.549C910.207 108.628 911.114 109.659 911.026 110.925Z" fill="#F5F0F7" stroke="#F5F0F7" stroke-width="1.74238"/>
<path d="M931.763 112.375C931.675 113.641 930.633 114.535 929.508 114.457C928.383 114.378 927.475 113.347 927.564 112.081C927.653 110.815 928.695 109.92 929.819 109.999C930.944 110.077 931.852 111.108 931.763 112.375Z" fill="#F5F0F7" stroke="#F5F0F7" stroke-width="1.74238"/>
<path d="M888.792 131.116C888.703 132.383 887.662 133.277 886.537 133.198C885.412 133.12 884.504 132.089 884.593 130.823C884.681 129.556 885.723 128.662 886.848 128.74C887.973 128.819 888.881 129.85 888.792 131.116Z" fill="#F5F0F7" stroke="#F5F0F7" stroke-width="1.74238"/>
<path d="M909.513 132.565C909.424 133.832 908.382 134.726 907.257 134.648C906.132 134.569 905.225 133.538 905.314 132.272C905.402 131.006 906.444 130.111 907.569 130.19C908.694 130.268 909.601 131.299 909.513 132.565Z" fill="#F5F0F7" stroke="#F5F0F7" stroke-width="1.74238"/>
<path d="M930.249 134.016C930.161 135.282 929.119 136.177 927.994 136.098C926.869 136.019 925.962 134.988 926.05 133.722C926.139 132.456 927.181 131.561 928.306 131.64C929.431 131.719 930.338 132.749 930.249 134.016Z" fill="#F5F0F7" stroke="#F5F0F7" stroke-width="1.74238"/>
<path d="M350.451 30.5845C350.362 31.8509 349.321 32.7454 348.196 32.6667C347.071 32.588 346.163 31.5572 346.252 30.2909C346.34 29.0246 347.382 28.1301 348.507 28.2087C349.632 28.2874 350.539 29.3182 350.451 30.5845Z" fill="#F5F0F7" stroke="#F5F0F7" stroke-width="1.74238"/>
<path d="M371.172 32.0333C371.084 33.2996 370.042 34.1941 368.917 34.1154C367.792 34.0368 366.885 33.006 366.973 31.7396C367.062 30.4733 368.104 29.5788 369.229 29.6575C370.354 29.7361 371.261 30.7669 371.172 32.0333Z" fill="#F5F0F7" stroke="#F5F0F7" stroke-width="1.74238"/>
<path d="M391.908 33.4835C391.819 34.7499 390.777 35.6443 389.653 35.5656C388.528 35.487 387.62 34.4562 387.709 33.1898C387.797 31.9235 388.839 31.029 389.964 31.1077C391.089 31.1863 391.996 32.2171 391.908 33.4835Z" fill="#F5F0F7" stroke="#F5F0F7" stroke-width="1.74238"/>
<path d="M348.938 52.2249C348.849 53.4913 347.807 54.3858 346.682 54.3071C345.557 54.2284 344.65 53.1976 344.738 51.9313C344.827 50.6649 345.869 49.7704 346.994 49.8491C348.119 49.9278 349.026 50.9585 348.938 52.2249Z" fill="#F5F0F7" stroke="#F5F0F7" stroke-width="1.74238"/>
<path d="M369.658 53.6741C369.57 54.9405 368.528 55.835 367.403 55.7563C366.278 55.6777 365.371 54.6469 365.459 53.3805C365.548 52.1141 366.59 51.2197 367.715 51.2983C368.84 51.377 369.747 52.4078 369.658 53.6741Z" fill="#F5F0F7" stroke="#F5F0F7" stroke-width="1.74238"/>
<path d="M390.395 55.1241C390.306 56.3905 389.264 57.2849 388.139 57.2063C387.014 57.1276 386.107 56.0968 386.196 54.8305C386.284 53.5641 387.326 52.6696 388.451 52.7483C389.576 52.8269 390.483 53.8577 390.395 55.1241Z" fill="#F5F0F7" stroke="#F5F0F7" stroke-width="1.74238"/>
<path d="M1013.2 433.665C1013.11 434.931 1012.07 435.826 1010.94 435.747C1009.82 435.668 1008.91 434.638 1009 433.371C1009.09 432.105 1010.13 431.21 1011.25 431.289C1012.38 431.368 1013.28 432.399 1013.2 433.665Z" fill="#F5F0F7" stroke="#F5F0F7" stroke-width="1.74238"/>
<path d="M1011.68 455.289C1011.6 456.556 1010.55 457.45 1009.43 457.371C1008.3 457.293 1007.4 456.262 1007.48 454.996C1007.57 453.729 1008.62 452.835 1009.74 452.913C1010.87 452.992 1011.77 454.023 1011.68 455.289Z" fill="#F5F0F7" stroke="#F5F0F7" stroke-width="1.74238"/>
<path d="M1010.17 476.93C1010.08 478.196 1009.04 479.091 1007.91 479.012C1006.79 478.933 1005.88 477.903 1005.97 476.636C1006.06 475.37 1007.1 474.476 1008.23 474.554C1009.35 474.633 1010.26 475.664 1010.17 476.93Z" fill="#F5F0F7" stroke="#F5F0F7" stroke-width="1.74238"/>
<path d="M1008.66 498.554C1008.57 499.82 1007.53 500.715 1006.4 500.636C1005.28 500.558 1004.37 499.527 1004.46 498.26C1004.55 496.994 1005.59 496.1 1006.71 496.178C1007.84 496.257 1008.75 497.288 1008.66 498.554Z" fill="#F5F0F7" stroke="#F5F0F7" stroke-width="1.74238"/>
<path d="M1007.15 520.195C1007.06 521.461 1006.01 522.356 1004.89 522.277C1003.76 522.198 1002.86 521.167 1002.95 519.901C1003.03 518.635 1004.08 517.74 1005.2 517.819C1006.33 517.898 1007.23 518.928 1007.15 520.195Z" fill="#F5F0F7" stroke="#F5F0F7" stroke-width="1.74238"/>
<path d="M1005.63 541.819C1005.54 543.085 1004.5 543.98 1003.38 543.901C1002.25 543.822 1001.35 542.792 1001.43 541.525C1001.52 540.259 1002.56 539.364 1003.69 539.443C1004.81 539.522 1005.72 540.553 1005.63 541.819Z" fill="#F5F0F7" stroke="#F5F0F7" stroke-width="1.74238"/>
<path d="M993.972 410.574C993.884 411.84 992.842 412.735 991.717 412.656C990.592 412.578 989.684 411.547 989.773 410.28C989.862 409.014 990.903 408.12 992.028 408.198C993.153 408.277 994.061 409.308 993.972 410.574Z" fill="#F5F0F7" stroke="#F5F0F7" stroke-width="1.74238"/>
<path d="M992.459 432.215C992.37 433.481 991.329 434.376 990.204 434.297C989.079 434.218 988.171 433.188 988.26 431.921C988.348 430.655 989.39 429.76 990.515 429.839C991.64 429.918 992.548 430.949 992.459 432.215Z" fill="#F5F0F7" stroke="#F5F0F7" stroke-width="1.74238"/>
<path d="M990.947 453.839C990.859 455.105 989.817 456 988.692 455.921C987.567 455.842 986.66 454.812 986.748 453.545C986.837 452.279 987.879 451.384 989.004 451.463C990.129 451.542 991.036 452.573 990.947 453.839Z" fill="#F5F0F7" stroke="#F5F0F7" stroke-width="1.74238"/>
<path d="M989.433 475.48C989.345 476.746 988.303 477.641 987.178 477.562C986.053 477.483 985.145 476.452 985.234 475.186C985.323 473.92 986.364 473.025 987.489 473.104C988.614 473.183 989.522 474.213 989.433 475.48Z" fill="#F5F0F7" stroke="#F5F0F7" stroke-width="1.74238"/>
<path d="M987.921 497.104C987.833 498.37 986.791 499.265 985.666 499.186C984.541 499.108 983.634 498.077 983.722 496.81C983.811 495.544 984.853 494.65 985.978 494.728C987.103 494.807 988.01 495.838 987.921 497.104Z" fill="#F5F0F7" stroke="#F5F0F7" stroke-width="1.74238"/>
<path d="M986.408 518.745C986.32 520.011 985.278 520.906 984.153 520.827C983.028 520.748 982.121 519.717 982.209 518.451C982.298 517.185 983.34 516.29 984.465 516.369C985.589 516.448 986.497 517.478 986.408 518.745Z" fill="#F5F0F7" stroke="#F5F0F7" stroke-width="1.74238"/>
<path d="M984.896 540.369C984.807 541.635 983.765 542.53 982.64 542.451C981.515 542.372 980.608 541.342 980.696 540.075C980.785 538.809 981.827 537.914 982.952 537.993C984.077 538.072 984.984 539.103 984.896 540.369Z" fill="#F5F0F7" stroke="#F5F0F7" stroke-width="1.74238"/>
<path d="M771.186 119.564L743.816 117.65C738.731 117.294 734.909 112.704 735.28 107.397L737.278 78.834C737.649 73.5269 742.072 69.5133 747.157 69.869L774.527 71.7828C779.613 72.1385 783.434 76.7285 783.063 82.0356L781.065 110.599C780.694 115.906 776.271 119.919 771.186 119.564Z" fill="#6842C2"/>
<path d="M774.923 93.3403L774.463 90.1613C774.379 89.5426 773.806 89.1216 773.212 89.2126L771.413 89.5174C770.947 89.6008 770.505 89.338 770.281 88.9083C769.666 87.7224 768.885 86.6409 767.965 85.7154C767.595 85.3417 767.508 84.7724 767.762 84.3099L768.779 82.4763C769.087 81.9347 768.898 81.2259 768.38 80.9247L765.698 79.3294C765.181 79.0116 764.5 79.2125 764.208 79.7552L763.117 81.7491C762.879 82.1963 762.373 82.3928 761.904 82.2937C761.326 82.1705 760.713 82.0779 760.113 82.036C759.497 81.9929 758.893 82.0004 758.303 82.0419C757.809 82.0736 757.351 81.8097 757.178 81.3339L756.375 79.2074C756.146 78.6282 755.515 78.3357 754.959 78.5784L752.081 79.785C751.525 80.0276 751.24 80.6868 751.47 81.266L752.222 83.2232C752.409 83.7167 752.228 84.2671 751.825 84.5867C750.784 85.3918 749.845 86.3364 749.087 87.4262C748.805 87.8206 748.331 88.0193 747.881 87.8719L746.142 87.3197C745.567 87.147 744.956 87.4852 744.772 88.0851L743.873 91.1691C743.704 91.7701 744.025 92.4054 744.599 92.5946L746.805 93.2788C746.766 93.6073 746.713 93.9183 746.689 94.2479C746.58 95.8137 746.742 97.3488 747.135 98.7675C747.261 99.24 747.113 99.7597 746.713 100.046L745.793 100.711C745.292 101.073 745.163 101.776 745.508 102.297L747.163 104.947C747.508 105.468 748.181 105.598 748.683 105.236L749.318 104.767C749.752 104.466 750.32 104.522 750.691 104.879C751.883 105.99 753.265 106.881 754.811 107.47C755.275 107.651 755.592 108.104 755.555 108.631L755.509 109.291C755.465 109.917 755.919 110.462 756.519 110.504L759.599 110.719C760.199 110.761 760.724 110.285 760.768 109.658L760.814 108.999C760.851 108.472 761.229 108.067 761.713 107.952C763.326 107.585 764.817 106.91 766.153 105.96C766.587 105.66 767.158 105.666 767.528 106.04L768.093 106.593C768.539 107.022 769.224 106.987 769.637 106.519L771.739 104.148C772.153 103.68 772.123 102.966 771.677 102.537L770.859 101.751C770.502 101.412 770.429 100.877 770.619 100.426C771.206 99.0595 771.58 97.5784 771.689 96.0126C771.712 95.683 771.703 95.3676 771.71 95.0369L773.989 94.6663C774.601 94.5434 775.007 93.959 774.923 93.3403ZM758.581 103.261C754.269 102.96 751.034 99.0733 751.348 94.5737C751.663 90.0742 755.408 86.6757 759.72 86.9772C764.031 87.2787 767.267 91.1653 766.952 95.6648C766.638 100.164 762.893 103.563 758.581 103.261Z" fill="white"/>
<path d="M1000.87 325.714C1004.93 307.895 994.399 290.103 977.34 285.975C960.281 281.847 943.157 292.945 939.093 310.764C935.029 328.583 945.564 346.375 962.623 350.503C979.682 354.631 996.805 343.533 1000.87 325.714Z" fill="#6842C2"/>
<path d="M987.01 323.79C989.969 313.965 984.746 303.548 975.343 300.524C965.941 297.499 955.92 303.012 952.961 312.838C950.002 322.663 955.225 333.079 964.628 336.104C974.03 339.128 984.051 333.615 987.01 323.79Z" fill="#6842C2" stroke="white" stroke-width="3.48476" stroke-miterlimit="10" stroke-linecap="round" stroke-linejoin="round"/>
<path d="M970.807 306.099L969.958 318.246L963.366 324.228" fill="#6842C2"/>
<path d="M970.807 306.099L969.958 318.246L963.366 324.228" stroke="white" stroke-width="3.48476" stroke-miterlimit="10" stroke-linecap="round" stroke-linejoin="round"/>
<path d="M971.256 299.671L971.132 301.451" stroke="white" stroke-width="3.48476" stroke-miterlimit="10" stroke-linecap="round" stroke-linejoin="round"/>
<path d="M968.781 335.058L968.658 336.821" stroke="white" stroke-width="3.48476" stroke-miterlimit="10" stroke-linecap="round" stroke-linejoin="round"/>
<path d="M987.758 319.491L986.051 319.372" stroke="white" stroke-width="3.48476" stroke-miterlimit="10" stroke-linecap="round" stroke-linejoin="round"/>
<path d="M953.865 317.121L952.158 317.002" stroke="white" stroke-width="3.48476" stroke-miterlimit="10" stroke-linecap="round" stroke-linejoin="round"/>
</svg>
