<svg width="31" height="31" viewBox="0 0 31 31" fill="none" xmlns="http://www.w3.org/2000/svg">
<g clip-path="url(#clip0_415_3208)">
<path d="M1.66638 3.0083H9.97675C11.4461 3.0083 12.8553 3.61362 13.8943 4.6911C14.9333 5.76858 15.517 7.22995 15.517 8.75374V28.8628C15.517 27.7199 15.0792 26.6239 14.3 25.8158C13.5207 25.0077 12.4638 24.5537 11.3618 24.5537H1.66638V3.0083Z" stroke="white" stroke-width="2.77012" stroke-linecap="round" stroke-linejoin="round"/>
<path d="M29.3676 3.0083H21.0572C19.5878 3.0083 18.1787 3.61362 17.1397 4.6911C16.1007 5.76858 15.517 7.22995 15.517 8.75374V28.8628C15.517 27.7199 15.9547 26.6239 16.734 25.8158C17.5132 25.0077 18.5701 24.5537 19.6722 24.5537H29.3676V3.0083Z" stroke="white" stroke-width="2.77012" stroke-linecap="round" stroke-linejoin="round"/>
</g>
<defs>
<clipPath id="clip0_415_3208">
<rect width="30" height="30" fill="white" transform="translate(0.0495605 0.468018)"/>
</clipPath>
</defs>
</svg>
