<svg width="95" height="95" viewBox="0 0 95 95" fill="none" xmlns="http://www.w3.org/2000/svg">
<ellipse cx="47.8412" cy="7.89591" rx="7.81137" ry="7.89591" fill="#47248F"/>
<path d="M25.3645 32.2596C23.6327 19.8094 37.4495 11.178 47.8787 18.195L64.8046 29.5829C67.1235 31.1431 68.0333 34.1139 66.9857 36.7051L63.6386 44.984C63.5604 45.1774 63.3152 45.2364 63.1577 45.0997L44.1576 28.6227C38.3397 23.5773 29.3563 25.1434 25.5888 31.8598L25.3645 32.2596Z" fill="#47248F"/>
<ellipse cx="86.3509" cy="46.9145" rx="7.81137" ry="7.89591" fill="#8257E5"/>
<path d="M62.3554 24.2586C74.7076 22.2825 83.6125 35.8068 76.9162 46.3729L65.7636 63.9708C64.2296 66.3913 61.1941 67.3832 58.5268 66.3355L50.4397 63.1589C50.2478 63.0835 50.185 62.8429 50.3157 62.6834L66.4893 42.9391C71.3069 37.058 69.6056 28.2476 62.9447 24.5829L62.3554 24.2586Z" fill="#8257E5"/>
<ellipse cx="47.8409" cy="85.933" rx="7.81137" ry="7.89591" fill="#47248F"/>
<path d="M70.2884 61.259C72.4491 73.6406 58.939 82.7543 48.274 76.1096L30.9649 65.3255C28.5935 63.848 27.5817 60.911 28.5392 58.2843L31.5983 49.8925C31.6698 49.6965 31.9128 49.6289 32.075 49.7599L51.6327 65.5569C57.6211 70.3939 66.5447 68.5119 70.078 61.6667L70.2884 61.259Z" fill="#47248F"/>
<ellipse cx="9.33139" cy="46.9147" rx="7.81137" ry="7.89591" fill="#8257E5"/>
<path d="M33.3795 69.9735C21.0631 72.1696 11.9287 58.8057 18.4435 48.1216L29.2936 30.3277C30.7859 27.8802 33.8039 26.8343 36.4886 27.8343L44.6288 30.8663C44.822 30.9383 44.8888 31.1777 44.7609 31.3395L28.9274 51.3691C24.211 57.3354 26.0624 66.1144 32.7848 69.6599L33.3795 69.9735Z" fill="#8257E5"/>
</svg>
