<svg width="166" height="166" viewBox="0 0 166 166" fill="none" xmlns="http://www.w3.org/2000/svg">
<ellipse cx="83.3888" cy="14.041" rx="13.6155" ry="13.7629" fill="#04D361"/>
<path d="M44.2112 56.5079V56.5079C41.1925 34.8068 65.2758 19.7619 83.4544 31.9927L112.957 51.8423C116.999 54.5618 118.585 59.74 116.759 64.2565L110.924 78.6871C110.788 79.0241 110.361 79.1269 110.086 78.8887L76.9683 50.1686C66.8274 41.3743 51.169 44.1041 44.6021 55.811L44.2112 56.5079Z" fill="#04D361"/>
<path d="M163.667 82.0517C163.667 89.4024 157.773 95.3529 150.513 95.3529C143.253 95.3529 137.359 89.4024 137.359 82.0517C137.359 74.701 143.253 68.7505 150.513 68.7505C157.773 68.7505 163.667 74.701 163.667 82.0517Z" fill="#F5F0F7" stroke="#F5F0F7" stroke-width="0.923374"/>
<path d="M102.183 115.474L88.0872 109.937C88.0442 109.92 88.0301 109.866 88.0594 109.83L116.251 75.4152C124.782 64.9998 121.835 49.426 110.137 42.8337C130.552 40.6447 144.887 63.1744 133.678 80.8606L114.239 111.534C111.683 115.567 106.627 117.219 102.183 115.474Z" fill="#F5F0F7" stroke="#F5F0F7" stroke-width="0.923374"/>
<ellipse cx="83.3887" cy="150.063" rx="13.6155" ry="13.7629" fill="#04D361"/>
<path d="M122.515 107.055V107.055C126.282 128.637 102.733 144.522 84.1434 132.94L53.9731 114.143C49.8396 111.568 48.0759 106.449 49.7449 101.87L55.0771 87.243C55.2016 86.9014 55.6252 86.7835 55.9079 87.0118L89.9977 114.547C100.436 122.978 115.99 119.697 122.149 107.766L122.515 107.055Z" fill="#04D361"/>
<path d="M29.4188 82.0524C29.4188 89.4032 23.5249 95.3536 16.2649 95.3536C9.00494 95.3536 3.1111 89.4032 3.1111 82.0524C3.1111 74.7017 9.00494 68.7512 16.2649 68.7512C23.5249 68.7512 29.4188 74.7017 29.4188 82.0524Z" fill="#F5F0F7" stroke="#F5F0F7" stroke-width="0.923374"/>
<path d="M63.4398 49.2269L77.6285 54.5119C77.6718 54.528 77.6867 54.5816 77.6581 54.6179L50.0596 89.5302C41.707 100.096 44.9203 115.615 56.728 121.998C36.3547 124.551 21.6373 102.28 32.5421 84.396L51.4542 53.3804C53.9402 49.3034 58.9677 47.5612 63.4398 49.2269Z" fill="#F5F0F7" stroke="#F5F0F7" stroke-width="0.923374"/>
</svg>
