<svg width="36" height="42" viewBox="0 0 36 42" fill="none" xmlns="http://www.w3.org/2000/svg">
<g clip-path="url(#clip0_336_4157)">
<path d="M24.4286 31.5V37.5C24.4286 38.2956 24.1576 39.0588 23.6754 39.6213C23.1932 40.1838 22.5391 40.5 21.8571 40.5H3.85713C3.17514 40.5 2.5211 40.1838 2.03886 39.6213C1.55662 39.0588 1.28571 38.2956 1.28571 37.5V4.5C1.28571 3.70434 1.55662 2.94129 2.03886 2.37868C2.5211 1.81607 3.17514 1.5 3.85713 1.5H21.8571C22.5391 1.5 23.1932 1.81607 23.6754 2.37868C24.1576 2.94129 24.4286 3.70434 24.4286 4.5V10.5" stroke="white" stroke-width="2" stroke-linecap="round" stroke-linejoin="round"/>
<path d="M34.7143 21H14.1428" stroke="white" stroke-width="2" stroke-linecap="round" stroke-linejoin="round"/>
<path d="M19.2857 15L14.1428 21L19.2857 27" stroke="white" stroke-width="2" stroke-linecap="round" stroke-linejoin="round"/>
</g>
<defs>
<clipPath id="clip0_336_4157">
<rect width="36" height="42" fill="white"/>
</clipPath>
</defs>
</svg>
