<svg width="69" height="69" viewBox="0 0 69 69" fill="none" xmlns="http://www.w3.org/2000/svg">
<path d="M13.1542 51.5917C16.0583 49.3708 19.3042 47.6198 22.8917 46.3385C26.4792 45.0573 30.2375 44.4167 34.1667 44.4167C38.0958 44.4167 41.8542 45.0573 45.4417 46.3385C49.0292 47.6198 52.275 49.3708 55.1792 51.5917C57.1722 49.2569 58.724 46.609 59.8344 43.6479C60.9448 40.6868 61.5 37.5264 61.5 34.1667C61.5 26.5931 58.8378 20.1441 53.5135 14.8198C48.1892 9.49549 41.7403 6.83333 34.1667 6.83333C26.5931 6.83333 20.1441 9.49549 14.8198 14.8198C9.49549 20.1441 6.83333 26.5931 6.83333 34.1667C6.83333 37.5264 7.38854 40.6868 8.49896 43.6479C9.60937 46.609 11.1611 49.2569 13.1542 51.5917ZM34.1667 37.5833C30.8069 37.5833 27.974 36.4302 25.6677 34.124C23.3615 31.8177 22.2083 28.9847 22.2083 25.625C22.2083 22.2653 23.3615 19.4323 25.6677 17.126C27.974 14.8198 30.8069 13.6667 34.1667 13.6667C37.5264 13.6667 40.3594 14.8198 42.6656 17.126C44.9719 19.4323 46.125 22.2653 46.125 25.625C46.125 28.9847 44.9719 31.8177 42.6656 34.124C40.3594 36.4302 37.5264 37.5833 34.1667 37.5833ZM34.1667 68.3333C29.4403 68.3333 24.9986 67.4365 20.8417 65.6427C16.6847 63.849 13.0687 61.4146 9.99375 58.3396C6.91875 55.2646 4.48438 51.6486 2.69062 47.4917C0.896875 43.3347 0 38.8931 0 34.1667C0 29.4403 0.896875 24.9986 2.69062 20.8417C4.48438 16.6847 6.91875 13.0687 9.99375 9.99375C13.0687 6.91875 16.6847 4.48438 20.8417 2.69062C24.9986 0.896875 29.4403 0 34.1667 0C38.8931 0 43.3347 0.896875 47.4917 2.69062C51.6486 4.48438 55.2646 6.91875 58.3396 9.99375C61.4146 13.0687 63.849 16.6847 65.6427 20.8417C67.4365 24.9986 68.3333 29.4403 68.3333 34.1667C68.3333 38.8931 67.4365 43.3347 65.6427 47.4917C63.849 51.6486 61.4146 55.2646 58.3396 58.3396C55.2646 61.4146 51.6486 63.849 47.4917 65.6427C43.3347 67.4365 38.8931 68.3333 34.1667 68.3333ZM34.1667 61.5C37.1847 61.5 40.0319 61.0587 42.7083 60.176C45.3847 59.2934 47.8333 58.0264 50.0542 56.375C47.8333 54.7236 45.3847 53.4566 42.7083 52.574C40.0319 51.6913 37.1847 51.25 34.1667 51.25C31.1486 51.25 28.3014 51.6913 25.625 52.574C22.9486 53.4566 20.5 54.7236 18.2792 56.375C20.5 58.0264 22.9486 59.2934 25.625 60.176C28.3014 61.0587 31.1486 61.5 34.1667 61.5ZM34.1667 30.75C35.6472 30.75 36.8715 30.266 37.8396 29.2979C38.8076 28.3299 39.2917 27.1056 39.2917 25.625C39.2917 24.1444 38.8076 22.9201 37.8396 21.9521C36.8715 20.984 35.6472 20.5 34.1667 20.5C32.6861 20.5 31.4618 20.984 30.4937 21.9521C29.5257 22.9201 29.0417 24.1444 29.0417 25.625C29.0417 27.1056 29.5257 28.3299 30.4937 29.2979C31.4618 30.266 32.6861 30.75 34.1667 30.75Z" fill="#6D4ABC"/>
</svg>
